<?xml version="1.0" encoding="UTF-8"?>
<!DOCTYPE svg PUBLIC "-//W3C//DTD SVG 1.1//EN" "http://www.w3.org/Graphics/SVG/1.1/DTD/svg11.dtd">
<svg xmlns="http://www.w3.org/2000/svg" version="1.1" width="748px" height="240px" style="shape-rendering:geometricPrecision; text-rendering:geometricPrecision; image-rendering:optimizeQuality; fill-rule:evenodd; clip-rule:evenodd" xmlns:xlink="http://www.w3.org/1999/xlink">
<g><path style="opacity:0.999" fill="#d5d5d5" d="M 71.5,31.5 C 72.1667,31.5 72.8333,31.5 73.5,31.5C 92.2804,29.7614 108.614,35.4281 122.5,48.5C 128.491,43.8362 134.824,39.6695 141.5,36C 154.425,30.895 167.425,30.5617 180.5,35C 185.964,38.0677 191.631,40.5677 197.5,42.5C 214.676,56.8879 221.176,75.2212 217,97.5C 214.42,107.948 209.587,117.114 202.5,125C 219.414,145.317 222.414,167.483 211.5,191.5C 206.078,197.753 200.078,203.586 193.5,209C 168.132,223.352 144.632,220.852 123,201.5C 101.367,221.121 77.8673,223.621 52.5,209C 29.9423,189.934 24.4423,166.767 36,139.5C 39.5145,134.656 43.0145,129.823 46.5,125C 30.0794,107.47 25.9128,87.3033 34,64.5C 37.5873,56.501 42.754,49.6677 49.5,44C 56.7188,39.3448 64.0521,35.1782 71.5,31.5 Z M 168.5,42.5 C 168.833,42.5 169.167,42.5 169.5,42.5C 172.739,43.4617 175.739,44.7951 178.5,46.5C 163.035,42.5298 148.701,44.8631 135.5,53.5C 144.771,45.0492 155.771,41.3825 168.5,42.5 Z M 178.5,46.5 C 183.869,47.5462 188.203,50.2129 191.5,54.5C 186.991,52.0809 182.658,49.4143 178.5,46.5 Z M 135.5,53.5 C 135.157,55.2252 134.157,55.7252 132.5,55C 133.244,53.9614 134.244,53.4614 135.5,53.5 Z M 106.5,50.5 C 108.027,50.427 109.027,51.0937 109.5,52.5C 107.973,52.573 106.973,51.9063 106.5,50.5 Z M 106.5,50.5 C 87.7492,41.2953 70.0826,42.962 53.5,55.5C 67.7587,41.57 84.092,38.7367 102.5,47C 104.093,47.9487 105.426,49.1154 106.5,50.5 Z M 191.5,54.5 C 193.19,54.8564 194.19,55.8564 194.5,57.5C 192.5,57.5 191.5,56.5 191.5,54.5 Z M 53.5,55.5 C 53.4894,57.6859 52.4894,58.5192 50.5,58C 51.3734,56.955 52.3734,56.1217 53.5,55.5 Z M 113.5,55.5 C 114.5,55.8333 115.167,56.5 115.5,57.5C 114.167,57.5 113.5,56.8333 113.5,55.5 Z M 84.5,57.5 C 89.2888,57.6538 93.6222,58.9871 97.5,61.5C 88.1667,58.8333 78.8333,58.8333 69.5,61.5C 73.8596,58.1638 78.8596,56.8305 84.5,57.5 Z M 194.5,57.5 C 196.262,58.2623 197.262,59.5956 197.5,61.5C 195.088,61.3059 194.088,59.9726 194.5,57.5 Z M 48.5,62.5 C 48.281,61.325 48.6143,60.325 49.5,59.5C 50.6653,60.8595 50.332,61.8595 48.5,62.5 Z M 97.5,61.5 C 98.8333,61.5 99.5,62.1667 99.5,63.5C 98.5,63.1667 97.8333,62.5 97.5,61.5 Z M 197.5,61.5 C 199.727,62.4006 200.727,64.0672 200.5,66.5C 198.273,65.5994 197.273,63.9328 197.5,61.5 Z M 48.5,62.5 C 48.7163,64.6807 47.883,66.3474 46,67.5C 45.253,65.0722 46.0863,63.4056 48.5,62.5 Z M 44.5,68.5 C 45.0542,70.7705 44.5542,73.1038 43,75.5C 42.1668,72.829 42.6668,70.4957 44.5,68.5 Z M 183.5,67.5 C 185.912,67.6941 186.912,69.0274 186.5,71.5C 184.738,70.7377 183.738,69.4044 183.5,67.5 Z M 145.5,64.5 C 145.217,65.2891 144.717,65.9558 144,66.5C 143.472,65.184 143.972,64.5173 145.5,64.5 Z M 149.5,61.5 C 148.564,62.9744 147.23,63.9744 145.5,64.5C 146.035,62.5544 147.368,61.5544 149.5,61.5 Z M 162.5,57.5 C 162.833,57.5 163.167,57.5 163.5,57.5C 169.682,57.5833 175.349,59.4166 180.5,63C 182.141,64.129 183.141,65.629 183.5,67.5C 173.434,59.1957 162.101,57.1957 149.5,61.5C 153.255,58.5837 157.588,57.2503 162.5,57.5 Z M 167.5,91.5 C 165.281,88.4032 162.614,85.7365 159.5,83.5C 157.737,80.8937 155.737,78.3937 153.5,76C 160.762,69.7804 167.596,70.2804 174,77.5C 177.516,83.5874 176.85,89.5874 172,95.5C 171.124,93.3645 169.624,92.0312 167.5,91.5 Z M 186.5,71.5 C 188.273,72.3143 188.773,73.6476 188,75.5C 186.812,74.4366 186.312,73.1033 186.5,71.5 Z M 41.5,76.5 C 42.6517,81.9846 42.8184,87.6513 42,93.5C 40.2248,87.8703 40.0581,82.2037 41.5,76.5 Z M 107.5,70.5 C 108.5,70.8333 109.167,71.5 109.5,72.5C 108.167,72.5 107.5,71.8333 107.5,70.5 Z M 143.5,85.5 C 144.289,85.7828 144.956,86.2828 145.5,87C 144.184,87.5281 143.517,87.0281 143.5,85.5 Z M 80.5,71.5 C 85.5202,71.1174 89.8535,72.6174 93.5,76C 86.9617,82.2071 80.4617,88.3737 74,94.5C 68.3063,88.7549 68.1396,82.7549 73.5,76.5C 75.7243,74.566 78.0576,72.8994 80.5,71.5 Z M 58.5,72.5 C 59.4646,73.7211 59.298,75.0544 58,76.5C 57.4209,75.0715 57.5876,73.7382 58.5,72.5 Z M 63.5,66.5 C 63.1667,67.5 62.5,68.1667 61.5,68.5C 61.5,67.1667 62.1667,66.5 63.5,66.5 Z M 69.5,61.5 C 69.1667,62.5 68.5,63.1667 67.5,63.5C 67.5,62.1667 68.1667,61.5 69.5,61.5 Z M 185.5,100.5 C 185.483,102.028 184.816,102.528 183.5,102C 184.044,101.283 184.711,100.783 185.5,100.5 Z M 121.5,106.5 C 122.552,106.351 123.552,106.517 124.5,107C 130.167,113.333 136.167,119.333 142.5,125C 136,131.5 129.5,138 123,144.5C 121.629,142.959 120.129,141.625 118.5,140.5C 113.699,135.528 109.032,130.362 104.5,125C 110.395,118.943 116.061,112.776 121.5,106.5 Z M 95.5,136.5 C 96.8333,136.5 97.5,137.167 97.5,138.5C 96.5,138.167 95.8333,137.5 95.5,136.5 Z M 73.5,155.5 C 79.7684,160.264 85.6018,165.598 91,171.5C 92.7462,174.839 91.5795,177.005 87.5,178C 77.3938,179.068 71.3938,174.568 69.5,164.5C 70.0297,161.11 71.363,158.11 73.5,155.5 Z M 171.5,155.5 C 172.496,155.414 173.329,155.748 174,156.5C 178.11,165.557 175.944,172.724 167.5,178C 162.175,179.257 157.508,178.09 153.5,174.5C 154.524,173.148 155.524,171.815 156.5,170.5C 161.5,165.5 166.5,160.5 171.5,155.5 Z M 42.5,156.5 C 42.5,161.833 42.5,167.167 42.5,172.5C 41.1166,170.902 40.4499,168.402 40.5,165C 40.4886,161.884 41.1553,159.051 42.5,156.5 Z M 61.5,181.5 C 63.1667,182.5 64.5,183.833 65.5,185.5C 63.1667,185.167 61.8333,183.833 61.5,181.5 Z M 186.5,150.5 C 187.931,151.78 188.598,153.447 188.5,155.5C 187.069,154.22 186.402,152.553 186.5,150.5 Z M 186.5,150.5 C 183.559,149.231 182.226,147.231 182.5,144.5C 185.049,145.75 186.382,147.75 186.5,150.5 Z M 65.5,185.5 C 67.4044,185.738 68.7377,186.738 69.5,188.5C 67.5956,188.262 66.2623,187.262 65.5,185.5 Z M 69.5,188.5 C 73.9314,189.732 78.4314,190.732 83,191.5C 86.5936,191.097 90.0936,190.43 93.5,189.5C 94.1667,189.5 94.8333,189.5 95.5,189.5C 94.8333,190.167 94.1667,190.833 93.5,191.5C 84.8309,194.784 76.8309,193.784 69.5,188.5 Z M 48.5,188.5 C 49.2891,188.783 49.9558,189.283 50.5,190C 49.184,190.528 48.5173,190.028 48.5,188.5 Z M 44.5,180.5 C 43.1522,179.473 42.6522,178.14 43,176.5C 44.1882,177.563 44.6882,178.897 44.5,180.5 Z M 197.5,188.5 C 197.262,190.404 196.262,191.738 194.5,192.5C 194.738,190.596 195.738,189.262 197.5,188.5 Z M 147.5,187.5 C 152.346,189.295 157.346,190.629 162.5,191.5C 167.241,190.752 171.907,189.752 176.5,188.5C 169.953,193.415 162.62,194.581 154.5,192C 151.761,190.974 149.428,189.474 147.5,187.5 Z M 200.5,183.5 C 200.727,185.933 199.727,187.599 197.5,188.5C 197.273,186.067 198.273,184.401 200.5,183.5 Z M 183.5,182.5 C 183.167,184.833 181.833,186.167 179.5,186.5C 180.5,184.833 181.833,183.5 183.5,182.5 Z M 185.5,180.5 C 185.167,181.5 184.5,182.167 183.5,182.5C 183.5,181.167 184.167,180.5 185.5,180.5 Z M 204.5,170.5 C 204.769,172.429 204.269,174.095 203,175.5C 202.797,173.609 203.297,171.943 204.5,170.5 Z M 124.5,168.5 C 123.706,173.45 123.706,178.45 124.5,183.5C 121.979,181.97 120.979,179.636 121.5,176.5C 122.319,173.695 122.819,170.695 123,167.5C 124.107,166.288 124.607,166.621 124.5,168.5 Z M 200.5,146.5 C 202.472,149.084 203.472,152.084 203.5,155.5C 201.928,152.785 200.928,149.785 200.5,146.5 Z M 200.5,146.5 C 198.584,145.335 197.751,143.668 198,141.5C 199.892,142.617 200.725,144.284 200.5,146.5 Z M 194.5,137.5 C 195.995,137.415 196.995,138.081 197.5,139.5C 195.604,140.639 194.604,139.973 194.5,137.5 Z M 194.5,137.5 C 191.85,137.042 191.35,136.042 193,134.5C 194.039,135.244 194.539,136.244 194.5,137.5 Z M 67.5,203.5 C 75.7681,205.591 84.1014,205.924 92.5,204.5C 94.7638,203.781 97.0971,203.448 99.5,203.5C 97.5073,205.163 95.1739,206.33 92.5,207C 85.0091,207.962 77.6758,207.462 70.5,205.5C 69.2905,205.068 68.2905,204.401 67.5,203.5 Z M 61.5,200.5 C 63.5,201.167 65.5,201.833 67.5,202.5C 67.5,202.833 67.5,203.167 67.5,203.5C 64.911,203.539 62.911,202.539 61.5,200.5 Z M 186.5,199.5 C 176.878,207.135 165.878,209.635 153.5,207C 148.632,205.67 144.299,203.504 140.5,200.5C 155.975,207.378 171.308,207.045 186.5,199.5 Z M 105.5,200.5 C 104.089,202.539 102.089,203.539 99.5,203.5C 101.181,201.992 103.181,200.992 105.5,200.5 Z M 189.5,197.5 C 189.027,198.906 188.027,199.573 186.5,199.5C 186.821,197.952 187.821,197.285 189.5,197.5 Z M 57.5,197.5 C 58.8333,197.5 59.5,198.167 59.5,199.5C 58.5,199.167 57.8333,198.5 57.5,197.5 Z M 135.5,196.5 C 137.749,197.08 139.415,198.413 140.5,200.5C 138.251,199.92 136.585,198.587 135.5,196.5 Z M 191.5,195.5 C 191.167,196.5 190.5,197.167 189.5,197.5C 189.5,196.167 190.167,195.5 191.5,195.5 Z M 132.5,193.5 C 133.833,194.167 134.833,195.167 135.5,196.5C 133.5,196.5 132.5,195.5 132.5,193.5 Z M 194.5,192.5 C 194.19,194.144 193.19,195.144 191.5,195.5C 191.5,193.5 192.5,192.5 194.5,192.5 Z M 51.5,192.5 C 52.8333,192.5 53.5,193.167 53.5,194.5C 52.5,194.167 51.8333,193.5 51.5,192.5 Z M 132.5,193.5 C 131.244,193.539 130.244,193.039 129.5,192C 130.998,191.415 131.998,191.915 132.5,193.5 Z"/></g>
<g><path style="opacity:0.271" fill="#b2b2b2" d="M 197.5,42.5 C 191.631,40.5677 185.964,38.0677 180.5,35C 167.425,30.5617 154.425,30.895 141.5,36C 134.824,39.6695 128.491,43.8362 122.5,48.5C 108.614,35.4281 92.2804,29.7614 73.5,31.5C 92.6151,28.0679 109.115,33.0679 123,46.5C 139.845,31.1935 159.345,26.6935 181.5,33C 187.244,35.5999 192.578,38.7666 197.5,42.5 Z"/></g>
<g><path style="opacity:0.396" fill="#ababab" d="M 168.5,42.5 C 155.771,41.3825 144.771,45.0492 135.5,53.5C 148.701,44.8631 163.035,42.5298 178.5,46.5C 175.739,44.7951 172.739,43.4617 169.5,42.5C 169.917,41.8761 170.584,41.5427 171.5,41.5C 199.531,49.8822 211.031,68.5489 206,97.5C 203.721,106.595 198.888,113.928 191.5,119.5C 191.158,118.662 190.492,118.328 189.5,118.5C 189.167,118.5 188.833,118.5 188.5,118.5C 189.091,117.849 189.757,117.182 190.5,116.5C 190.043,115.702 189.376,115.369 188.5,115.5C 204.052,98.3509 205.552,80.0175 193,60.5C 178.746,45.8132 162.246,42.6465 143.5,51C 140.283,53.7256 136.95,56.2256 133.5,58.5C 131.603,58.2718 130.27,57.2718 129.5,55.5C 140.361,43.6564 153.361,39.3231 168.5,42.5 Z M 168.5,42.5 C 168.833,42.5 169.167,42.5 169.5,42.5C 172.739,43.4617 175.739,44.7951 178.5,46.5C 163.035,42.5298 148.701,44.8631 135.5,53.5C 144.771,45.0492 155.771,41.3825 168.5,42.5 Z M 178.5,46.5 C 183.869,47.5462 188.203,50.2129 191.5,54.5C 186.991,52.0809 182.658,49.4143 178.5,46.5 Z M 135.5,53.5 C 134.244,53.4614 133.244,53.9614 132.5,55C 134.157,55.7252 135.157,55.2252 135.5,53.5 Z M 191.5,54.5 C 193.19,54.8564 194.19,55.8564 194.5,57.5C 192.5,57.5 191.5,56.5 191.5,54.5 Z M 194.5,57.5 C 196.262,58.2623 197.262,59.5956 197.5,61.5C 195.088,61.3059 194.088,59.9726 194.5,57.5 Z M 197.5,61.5 C 199.727,62.4006 200.727,64.0672 200.5,66.5C 198.273,65.5994 197.273,63.9328 197.5,61.5 Z"/></g>
<g><path style="opacity:0.492" fill="#a8a8a8" d="M 127.5,66.5 C 124.366,67.1076 123.699,68.7742 125.5,71.5C 120.369,66.8698 115.369,62.0365 110.5,57C 95.1464,44.6407 78.8131,43.3074 61.5,53C 48.142,63.2258 42.642,76.7258 45,93.5C 46.7923,99.7513 49.6256,105.418 53.5,110.5C 51.2646,110.205 49.2646,110.539 47.5,111.5C 40.1066,102.241 37.2733,91.5746 39,79.5C 43.2544,57.5795 56.4211,44.7462 78.5,41C 90.5552,40.0973 101.555,43.0973 111.5,50C 117.036,55.3686 122.37,60.8686 127.5,66.5 Z M 106.5,50.5 C 108.027,50.427 109.027,51.0937 109.5,52.5C 107.973,52.573 106.973,51.9063 106.5,50.5 Z M 106.5,50.5 C 87.7492,41.2953 70.0826,42.962 53.5,55.5C 67.7587,41.57 84.092,38.7367 102.5,47C 104.093,47.9487 105.426,49.1154 106.5,50.5 Z M 53.5,55.5 C 52.3734,56.1217 51.3734,56.955 50.5,58C 52.4894,58.5192 53.4894,57.6859 53.5,55.5 Z M 113.5,55.5 C 114.5,55.8333 115.167,56.5 115.5,57.5C 114.167,57.5 113.5,56.8333 113.5,55.5 Z M 84.5,57.5 C 89.2888,57.6538 93.6222,58.9871 97.5,61.5C 88.1667,58.8333 78.8333,58.8333 69.5,61.5C 73.8596,58.1638 78.8596,56.8305 84.5,57.5 Z M 48.5,62.5 C 50.332,61.8595 50.6653,60.8595 49.5,59.5C 48.6143,60.325 48.281,61.325 48.5,62.5 Z M 97.5,61.5 C 98.8333,61.5 99.5,62.1667 99.5,63.5C 98.5,63.1667 97.8333,62.5 97.5,61.5 Z M 48.5,62.5 C 46.0863,63.4056 45.253,65.0722 46,67.5C 47.883,66.3474 48.7163,64.6807 48.5,62.5 Z M 44.5,68.5 C 42.6668,70.4957 42.1668,72.829 43,75.5C 44.5542,73.1038 45.0542,70.7705 44.5,68.5 Z M 41.5,76.5 C 40.0581,82.2037 40.2248,87.8703 42,93.5C 42.8184,87.6513 42.6517,81.9846 41.5,76.5 Z M 63.5,66.5 C 63.1667,67.5 62.5,68.1667 61.5,68.5C 61.5,67.1667 62.1667,66.5 63.5,66.5 Z M 69.5,61.5 C 69.1667,62.5 68.5,63.1667 67.5,63.5C 67.5,62.1667 68.1667,61.5 69.5,61.5 Z"/></g>
<g><path style="opacity:0.462" fill="#b0b0b0" d="M 167.5,91.5 C 169.624,92.0312 171.124,93.3645 172,95.5C 176.85,89.5874 177.516,83.5874 174,77.5C 167.596,70.2804 160.762,69.7804 153.5,76C 155.737,78.3937 157.737,80.8937 159.5,83.5C 147.063,77.4216 147.73,72.7549 161.5,69.5C 175.627,71.0799 180.793,78.7465 177,92.5C 173.076,100.432 169.91,100.099 167.5,91.5 Z"/></g>
<g><path style="opacity:0.169" fill="#adadad" d="M 162.5,57.5 C 157.588,57.2503 153.255,58.5837 149.5,61.5C 162.101,57.1957 173.434,59.1957 183.5,67.5C 183.141,65.629 182.141,64.129 180.5,63C 175.349,59.4166 169.682,57.5833 163.5,57.5C 163.97,56.3065 164.97,55.6399 166.5,55.5C 188.004,61.1712 196.17,74.8378 191,96.5C 187.82,103.845 182.987,109.845 176.5,114.5C 176.5,113.167 176.5,111.833 176.5,110.5C 175.5,110.5 174.5,110.5 173.5,110.5C 176.241,106.526 179.408,102.86 183,99.5C 189.516,88.6503 188.85,78.317 181,68.5C 168.204,57.6046 155.704,57.9379 143.5,69.5C 142.019,68.5197 140.685,67.353 139.5,66C 145.958,58.3789 153.625,55.5456 162.5,57.5 Z M 183.5,67.5 C 185.912,67.6941 186.912,69.0274 186.5,71.5C 184.738,70.7377 183.738,69.4044 183.5,67.5 Z M 145.5,64.5 C 143.972,64.5173 143.472,65.184 144,66.5C 144.717,65.9558 145.217,65.2891 145.5,64.5 Z M 149.5,61.5 C 148.564,62.9744 147.23,63.9744 145.5,64.5C 146.035,62.5544 147.368,61.5544 149.5,61.5 Z M 162.5,57.5 C 162.833,57.5 163.167,57.5 163.5,57.5C 169.682,57.5833 175.349,59.4166 180.5,63C 182.141,64.129 183.141,65.629 183.5,67.5C 173.434,59.1957 162.101,57.1957 149.5,61.5C 153.255,58.5837 157.588,57.2503 162.5,57.5 Z M 186.5,71.5 C 186.312,73.1033 186.812,74.4366 188,75.5C 188.773,73.6476 188.273,72.3143 186.5,71.5 Z M 185.5,100.5 C 184.711,100.783 184.044,101.283 183.5,102C 184.816,102.528 185.483,102.028 185.5,100.5 Z"/></g>
<g><path style="opacity:0.49" fill="#757474" d="M 127.5,66.5 C 128.833,67.1667 129.833,68.1667 130.5,69.5C 130.5,70.8333 130.5,72.1667 130.5,73.5C 129.5,73.5 128.5,73.5 127.5,73.5C 126.5,73.1667 125.833,72.5 125.5,71.5C 123.699,68.7742 124.366,67.1076 127.5,66.5 Z"/></g>
<g><path style="opacity:0.706" fill="#565656" d="M 124.5,84.5 C 123.833,84.5 123.167,84.5 122.5,84.5C 122.158,83.6618 121.492,83.3284 120.5,83.5C 120.5,82.8333 120.167,82.5 119.5,82.5C 119.167,81.1667 118.833,81.1667 118.5,82.5C 117.662,82.8417 117.328,83.5084 117.5,84.5C 112.806,79.8063 108.14,75.1396 103.5,70.5C 103.328,69.5084 103.662,68.8417 104.5,68.5C 105.212,67.2613 106.212,66.7613 107.5,67C 113.37,72.7019 119.036,78.5353 124.5,84.5 Z M 107.5,70.5 C 108.5,70.8333 109.167,71.5 109.5,72.5C 108.167,72.5 107.5,71.8333 107.5,70.5 Z"/></g>
<g><path style="opacity:0.19" fill="#a2a2a2" d="M 130.5,69.5 C 142.132,80.6313 153.632,91.9646 165,103.5C 164.983,105.568 163.983,107.234 162,108.5C 150.298,96.9651 138.798,85.2985 127.5,73.5C 128.5,73.5 129.5,73.5 130.5,73.5C 130.5,72.1667 130.5,70.8333 130.5,69.5 Z M 143.5,85.5 C 143.517,87.0281 144.184,87.5281 145.5,87C 144.956,86.2828 144.289,85.7828 143.5,85.5 Z"/></g>
<g><path style="opacity:0.394" fill="#b1b1b1" d="M 80.5,69.5 C 84.6265,69.572 88.6265,70.2387 92.5,71.5C 92.5,72.5 92.5,73.5 92.5,74.5C 94.1033,74.3118 95.4366,74.8118 96.5,76C 89,83.5 81.5,91 74,98.5C 65.6577,90.1249 65.491,81.6249 73.5,73C 75.9252,71.7874 78.2585,70.6207 80.5,69.5 Z M 80.5,71.5 C 78.0576,72.8994 75.7243,74.566 73.5,76.5C 68.1396,82.7549 68.3063,88.7549 74,94.5C 80.4617,88.3737 86.9617,82.2071 93.5,76C 89.8535,72.6174 85.5202,71.1174 80.5,71.5 Z"/></g>
<g><path style="opacity:0.172" fill="#acacac" d="M 84.5,57.5 C 78.8596,56.8305 73.8596,58.1638 69.5,61.5C 78.8333,58.8333 88.1667,58.8333 97.5,61.5C 97.8333,62.5 98.5,63.1667 99.5,63.5C 99.8417,64.3382 100.508,64.6716 101.5,64.5C 101.5,65.1667 101.833,65.5 102.5,65.5C 102.5,66.1667 102.833,66.5 103.5,66.5C 103.5,67.1667 103.833,67.5 104.5,67.5C 104.5,67.8333 104.5,68.1667 104.5,68.5C 103.662,68.8417 103.328,69.5084 103.5,70.5C 89.6827,56.9394 76.1827,57.2727 63,71.5C 59.6904,78.1286 58.6904,85.1286 60,92.5C 61.1572,96.822 63.3238,100.489 66.5,103.5C 64.3925,103.278 62.7258,102.278 61.5,100.5C 60.2613,100.942 59.2613,101.609 58.5,102.5C 48.5232,82.9205 53.1898,67.7538 72.5,57C 76.7405,54.8878 80.7405,55.0545 84.5,57.5 Z M 58.5,72.5 C 57.5876,73.7382 57.4209,75.0715 58,76.5C 59.298,75.0544 59.4646,73.7211 58.5,72.5 Z M 63.5,66.5 C 63.1667,67.5 62.5,68.1667 61.5,68.5C 61.5,67.1667 62.1667,66.5 63.5,66.5 Z M 69.5,61.5 C 69.1667,62.5 68.5,63.1667 67.5,63.5C 67.5,62.1667 68.1667,61.5 69.5,61.5 Z"/></g>
<g><path style="opacity:0.996" fill="#f7f7f7" d="M 255.5,90.5 C 257.5,90.5 259.5,90.5 261.5,90.5C 263.47,110.934 264.137,131.601 263.5,152.5C 262.5,152.5 261.5,152.5 260.5,152.5C 260.5,133.5 260.5,114.5 260.5,95.5C 259.791,94.596 258.791,94.2627 257.5,94.5C 257.5,115.167 257.5,135.833 257.5,156.5C 268.346,156.828 279.013,156.494 289.5,155.5C 290.055,151.988 289.388,148.988 287.5,146.5C 283.167,146.5 278.833,146.5 274.5,146.5C 274.5,145.5 274.5,144.5 274.5,143.5C 280.5,143.5 286.5,143.5 292.5,143.5C 292.5,149.167 292.5,154.833 292.5,160.5C 280.5,160.5 268.5,160.5 256.5,160.5C 254.173,137.322 253.84,113.988 255.5,90.5 Z"/></g>
<g><path style="opacity:1" fill="#f0f0f0" d="M 267.5,90.5 C 268.5,90.5 269.5,90.5 270.5,90.5C 270.5,110.167 270.5,129.833 270.5,149.5C 275.833,149.5 281.167,149.5 286.5,149.5C 286.5,150.5 286.5,151.5 286.5,152.5C 280.355,153.49 274.022,153.823 267.5,153.5C 267.5,139.5 267.5,125.5 267.5,111.5C 267.5,104.5 267.5,97.5 267.5,90.5 Z"/></g>
<g><path style="opacity:1" fill="#f2f2f2" d="M 324.5,90.5 C 324.833,90.5 325.167,90.5 325.5,90.5C 326.287,92.1042 327.62,92.7709 329.5,92.5C 329.333,106.837 329.5,121.171 330,135.5C 330.232,136.737 330.732,137.737 331.5,138.5C 333.821,141.936 337.155,143.603 341.5,143.5C 346.556,143.632 350.389,141.632 353,137.5C 353.27,122.483 353.77,107.483 354.5,92.5C 357.609,92.7359 360.609,92.4025 363.5,91.5C 363.5,92.1667 363.5,92.8333 363.5,93.5C 363.667,107.837 363.5,122.171 363,136.5C 362.021,144.808 357.521,149.975 349.5,152C 343.833,152.667 338.167,152.667 332.5,152C 326.155,150.118 322.489,145.952 321.5,139.5C 320.85,137.565 320.517,135.565 320.5,133.5C 320.5,121.833 320.5,110.167 320.5,98.5C 321.5,98.5 322.5,98.5 323.5,98.5C 323.171,111.677 323.505,124.677 324.5,137.5C 324.5,137.833 324.5,138.167 324.5,138.5C 327.229,146.382 332.896,150.049 341.5,149.5C 350.426,150.38 356.426,146.713 359.5,138.5C 359.5,137.833 359.5,137.167 359.5,136.5C 360.149,122.459 359.482,108.792 357.5,95.5C 356.504,108.99 356.171,122.656 356.5,136.5C 353.639,143.162 348.473,146.495 341,146.5C 334.469,146.458 329.969,143.458 327.5,137.5C 327.5,137.167 327.5,136.833 327.5,136.5C 327.829,122.656 327.496,108.99 326.5,95.5C 323.5,95.5 320.5,95.5 317.5,95.5C 316.339,108.994 316.173,122.66 317,136.5C 317.198,138.382 317.698,140.048 318.5,141.5C 320.658,148.49 325.325,152.99 332.5,155C 341.989,156.584 350.989,155.25 359.5,151C 363.13,147.238 365.297,142.738 366,137.5C 366.5,122.837 366.667,108.17 366.5,93.5C 367.209,92.596 368.209,92.2627 369.5,92.5C 369.433,109.376 369.433,126.042 369.5,142.5C 369.5,142.833 369.5,143.167 369.5,143.5C 366.466,146.505 363.632,149.838 361,153.5C 360.517,154.448 360.351,155.448 360.5,156.5C 350.067,160.931 339.401,161.598 328.5,158.5C 322.4,154.219 317.9,148.553 315,141.5C 314.5,125.17 314.333,108.837 314.5,92.5C 317.518,92.6646 320.518,92.498 323.5,92C 324.056,91.6174 324.389,91.1174 324.5,90.5 Z"/></g>
<g><path style="opacity:0.925" fill="#6c6c6c" d="M 371.5,94.5 C 370.833,93.8333 370.167,93.1667 369.5,92.5C 368.209,92.2627 367.209,92.596 366.5,93.5C 365.5,93.5 364.5,93.5 363.5,93.5C 363.5,92.8333 363.5,92.1667 363.5,91.5C 366.054,90.612 368.721,90.2786 371.5,90.5C 371.5,91.8333 371.5,93.1667 371.5,94.5 Z"/></g>
<g><path style="opacity:0.999" fill="#ededed" d="M 635.5,134.5 C 636.622,136.288 636.789,138.288 636,140.5C 634.62,143.428 633.12,146.262 631.5,149C 631.743,149.902 632.077,150.735 632.5,151.5C 631.058,153.637 629.891,155.97 629,158.5C 628.329,159.252 627.496,159.586 626.5,159.5C 617.405,140.647 607.738,121.98 597.5,103.5C 594.343,120.756 591.676,138.09 589.5,155.5C 592.833,155.5 596.167,155.5 599.5,155.5C 599.722,148.721 600.722,142.055 602.5,135.5C 603.425,136.357 604.092,137.357 604.5,138.5C 604.448,140.903 604.781,143.236 605.5,145.5C 604.994,150.523 604.327,155.523 603.5,160.5C 597.5,160.5 591.5,160.5 585.5,160.5C 588.507,138.438 591.841,116.438 595.5,94.5C 595.81,93.2617 596.31,93.2617 597,94.5C 607,113.167 617,131.833 627,150.5C 630.101,145.298 632.934,139.965 635.5,134.5 Z"/></g>
<g><path style="opacity:0.037" fill="#aaaaaa" d="M 556.5,91.5 C 562.389,92.965 568.056,95.1317 573.5,98C 574.536,99.7755 574.536,101.609 573.5,103.5C 572.209,103.737 571.209,103.404 570.5,102.5C 572.332,101.86 572.665,100.86 571.5,99.5C 566.181,97.0131 561.181,94.3464 556.5,91.5 Z"/></g>
<g><path style="opacity:0.116" fill="#b5b5b5" d="M 536.5,93.5 C 534.241,96.9378 531.741,100.271 529,103.5C 527.064,109.182 527.064,114.848 529,120.5C 531.741,123.729 534.241,127.062 536.5,130.5C 523.173,120.69 521.506,109.19 531.5,96C 533.078,94.9055 534.745,94.0722 536.5,93.5 Z"/></g>
<g><path style="opacity:0.465" fill="#b2b2b2" d="M 716.5,112.5 C 716.449,110.43 717.115,108.597 718.5,107C 718.257,106.098 717.923,105.265 717.5,104.5C 718.833,104.5 719.5,103.833 719.5,102.5C 721.332,101.86 721.665,100.86 720.5,99.5C 716.611,97.7258 712.945,95.7258 709.5,93.5C 713.088,93.8332 716.755,94.9999 720.5,97C 722.215,97.7771 723.215,99.1105 723.5,101C 721.465,105.05 719.132,108.884 716.5,112.5 Z"/></g>
<g><path style="opacity:0.552" fill="#aaaaaa" d="M 492.5,91.5 C 501.822,93.8266 508.822,99.1599 513.5,107.5C 512.448,107.649 511.448,107.483 510.5,107C 506.369,100.597 500.702,96.097 493.5,93.5C 492.702,93.0431 492.369,92.3764 492.5,91.5 Z"/></g>
<g><path style="opacity:0.336" fill="#b6b6b6" d="M 407.5,96.5 C 409.833,95.1667 412.167,95.1667 414.5,96.5C 414.285,97.734 414.952,97.734 416.5,96.5C 424.672,95.0755 431.672,97.4088 437.5,103.5C 438.308,103.192 438.975,102.692 439.5,102C 436.591,100.594 434.591,98.4278 433.5,95.5C 437.307,97.2131 439.974,99.3797 441.5,102C 441.333,102.833 441.167,103.667 441,104.5C 440.667,104.167 440.333,103.833 440,103.5C 437.675,105.501 435.842,107.834 434.5,110.5C 434.66,108.801 434.494,107.134 434,105.5C 426.787,99.4884 418.621,97.4884 409.5,99.5C 410.058,98.2101 411.058,97.3768 412.5,97C 410.866,96.5065 409.199,96.3398 407.5,96.5 Z"/></g>
<g><path style="opacity:0.757" fill="#747474" d="M 689.5,91.5 C 685.246,94.9242 681.413,98.9242 678,103.5C 676.71,107.73 676.21,112.064 676.5,116.5C 676.5,117.833 676.5,119.167 676.5,120.5C 671.788,106.916 676.121,97.2493 689.5,91.5 Z"/></g>
<g><path style="opacity:0.453" fill="#c9c9c9" d="M 255.5,90.5 C 253.84,113.988 254.173,137.322 256.5,160.5C 255.167,160.5 253.833,160.5 252.5,160.5C 252.5,137.167 252.5,113.833 252.5,90.5C 253.5,90.5 254.5,90.5 255.5,90.5 Z"/></g>
<g><path style="opacity:1" fill="#787878" d="M 357.5,95.5 C 357.333,108.837 357.5,122.171 358,135.5C 358.383,136.056 358.883,136.389 359.5,136.5C 359.5,137.167 359.5,137.833 359.5,138.5C 357.632,139.674 356.632,139.007 356.5,136.5C 356.171,122.656 356.504,108.99 357.5,95.5 Z"/></g>
<g><path style="opacity:0.998" fill="#202020" d="M 357.5,95.5 C 359.482,108.792 360.149,122.459 359.5,136.5C 358.883,136.389 358.383,136.056 358,135.5C 357.5,122.171 357.333,108.837 357.5,95.5 Z"/></g>
<g><path style="opacity:0.306" fill="#808080" d="M 66.5,103.5 C 67.1183,105.664 66.1183,107.33 63.5,108.5C 61.359,106.878 59.6924,104.878 58.5,102.5C 59.2613,101.609 60.2613,100.942 61.5,100.5C 62.7258,102.278 64.3925,103.278 66.5,103.5 Z"/></g>
<g><path style="opacity:0.634" fill="#303030" d="M 118.5,82.5 C 118.833,82.5 119.167,82.5 119.5,82.5C 120.167,82.5 120.5,82.8333 120.5,83.5C 121.492,83.3284 122.158,83.6618 122.5,84.5C 123.167,84.5 123.833,84.5 124.5,84.5C 134.965,94.4645 145.298,104.631 155.5,115C 154.315,116.353 152.981,117.52 151.5,118.5C 140.425,106.758 129.092,95.4249 117.5,84.5C 117.328,83.5084 117.662,82.8417 118.5,82.5 Z"/></g>
<g><path style="opacity:0.995" fill="#5f5f5f" d="M 326.5,96.5 C 326.665,100.182 326.499,103.848 326,107.5C 325.027,104.421 324.194,101.421 323.5,98.5C 322.5,98.5 321.5,98.5 320.5,98.5C 320.5,110.167 320.5,121.833 320.5,133.5C 318.973,133.573 317.973,132.906 317.5,131.5C 319.478,120.549 320.144,109.216 319.5,97.5C 321.95,97.702 324.283,97.3686 326.5,96.5 Z"/></g>
<g><path style="opacity:0.718" fill="#555555" d="M 266.5,90.5 C 266.833,90.5 267.167,90.5 267.5,90.5C 267.5,97.5 267.5,104.5 267.5,111.5C 266.5,111.5 265.5,111.5 264.5,111.5C 263.998,104.323 264.665,97.3232 266.5,90.5 Z"/></g>
<g><path style="opacity:0.443" fill="#b1b1b1" d="M 363.5,91.5 C 360.609,92.4025 357.609,92.7359 354.5,92.5C 353.77,107.483 353.27,122.483 353,137.5C 350.389,141.632 346.556,143.632 341.5,143.5C 337.155,143.603 333.821,141.936 331.5,138.5C 331.5,137.5 331.5,136.5 331.5,135.5C 335.844,141.433 341.511,142.933 348.5,140C 349.211,138.745 350.044,137.579 351,136.5C 351.248,121.147 351.748,105.813 352.5,90.5C 356.371,90.185 360.038,90.5184 363.5,91.5 Z"/></g>
<g><path style="opacity:0.985" fill="#202020" d="M 317.5,95.5 C 320.5,95.5 323.5,95.5 326.5,95.5C 326.5,95.8333 326.5,96.1667 326.5,96.5C 324.283,97.3686 321.95,97.702 319.5,97.5C 320.144,109.216 319.478,120.549 317.5,131.5C 317.5,119.5 317.5,107.5 317.5,95.5 Z"/></g>
<g><path style="opacity:0.128" fill="#b0b0b0" d="M 712.5,114.5 C 708.285,111.733 703.619,110.067 698.5,109.5C 696.792,109.703 695.459,110.536 694.5,112C 700.855,115.184 707.189,118.518 713.5,122C 717.036,125.113 719.369,128.946 720.5,133.5C 718.174,129.655 715.174,126.155 711.5,123C 705.343,120.09 699.176,117.257 693,114.5C 691.963,110.269 693.63,107.936 698,107.5C 703.097,108.148 707.931,109.481 712.5,111.5C 712.5,112.5 712.5,113.5 712.5,114.5 Z"/></g>
<g><path style="opacity:0.973" fill="#5c5c5c" d="M 260.5,95.5 C 258.512,115.139 257.845,135.139 258.5,155.5C 268.833,155.5 279.167,155.5 289.5,155.5C 279.013,156.494 268.346,156.828 257.5,156.5C 257.5,135.833 257.5,115.167 257.5,94.5C 258.791,94.2627 259.791,94.596 260.5,95.5 Z"/></g>
<g><path style="opacity:0.996" fill="#b2b2b2" d="M 317.5,95.5 C 317.5,107.5 317.5,119.5 317.5,131.5C 317.973,132.906 318.973,133.573 320.5,133.5C 320.517,135.565 320.85,137.565 321.5,139.5C 319.402,138.086 318.402,138.752 318.5,141.5C 317.698,140.048 317.198,138.382 317,136.5C 316.173,122.66 316.339,108.994 317.5,95.5 Z"/></g>
<g><path style="opacity:0.437" fill="#c1c1c1" d="M 568.5,105.5 C 569.5,105.5 570.5,105.5 571.5,105.5C 570.235,108.525 568.568,111.358 566.5,114C 564.833,114.667 563.167,114.667 561.5,114C 557.041,110.635 552.041,109.302 546.5,110C 545.167,111.333 545.167,112.667 546.5,114C 556.298,115.813 564.132,120.647 570,128.5C 573.87,137.169 573.036,145.169 567.5,152.5C 566.692,150.7 567.192,149.033 569,147.5C 572.365,137.791 570.199,129.625 562.5,123C 557.135,119.91 551.468,117.577 545.5,116C 541.959,113.718 541.626,111.051 544.5,108C 551.436,107.419 557.936,108.919 564,112.5C 566.508,110.819 568.008,108.486 568.5,105.5 Z"/></g>
<g><path style="opacity:1" fill="#e8e8e8" d="M 598.5,90.5 C 602.429,90.2558 605.263,91.9225 607,95.5C 610.242,103.215 614.076,110.548 618.5,117.5C 618.206,121.567 619.54,124.9 622.5,127.5C 623.462,130.757 624.962,133.757 627,136.5C 631.333,128.5 635.667,120.5 640,112.5C 642.743,124.625 644.743,136.959 646,149.5C 646.036,151.941 646.869,153.941 648.5,155.5C 649.657,152.216 649.824,148.882 649,145.5C 647.125,133.334 645.292,121.167 643.5,109C 644.653,101.773 645.82,101.94 647,109.5C 649.494,124.799 651.661,140.132 653.5,155.5C 654.5,155.5 655.5,155.5 656.5,155.5C 654.205,135.201 651.205,115.034 647.5,95C 646.551,94.3828 645.718,94.5494 645,95.5C 639,106.833 633,118.167 627,129.5C 626.487,128.473 625.987,127.473 625.5,126.5C 631.568,114.794 637.568,103.127 643.5,91.5C 645.948,90.5269 648.615,90.1936 651.5,90.5C 651.747,93.5868 652.747,96.4201 654.5,99C 654.043,99.414 653.709,99.914 653.5,100.5C 656.982,120.701 659.982,140.701 662.5,160.5C 656.401,160.15 650.401,160.15 644.5,160.5C 643.653,151.956 642.319,143.622 640.5,135.5C 640.411,131.283 639.577,127.283 638,123.5C 634.412,129.675 631.078,136.009 628,142.5C 627.333,143.833 626.667,143.833 626,142.5C 616.553,125.271 607.387,107.938 598.5,90.5 Z"/></g>
<g><path style="opacity:0.998" fill="#3b3b3b" d="M 622.5,127.5 C 623.391,126.89 624.391,126.557 625.5,126.5C 625.987,127.473 626.487,128.473 627,129.5C 633,118.167 639,106.833 645,95.5C 645.718,94.5494 646.551,94.3828 647.5,95C 651.205,115.034 654.205,135.201 656.5,155.5C 655.5,155.5 654.5,155.5 653.5,155.5C 651.661,140.132 649.494,124.799 647,109.5C 645.82,101.94 644.653,101.773 643.5,109C 645.292,121.167 647.125,133.334 649,145.5C 649.824,148.882 649.657,152.216 648.5,155.5C 646.869,153.941 646.036,151.941 646,149.5C 644.743,136.959 642.743,124.625 640,112.5C 635.667,120.5 631.333,128.5 627,136.5C 624.962,133.757 623.462,130.757 622.5,127.5 Z"/></g>
<g><path style="opacity:0.636" fill="#3b3b3b" d="M 53.5,110.5 C 54.4756,111.815 55.4756,113.148 56.5,114.5C 55.5,115.833 54.5,117.167 53.5,118.5C 50.7341,116.741 48.7341,114.407 47.5,111.5C 49.2646,110.539 51.2646,110.205 53.5,110.5 Z"/></g>
<g><path style="opacity:0.568" fill="#b4b4b4" d="M 270.5,90.5 C 271.267,91.172 271.934,92.0053 272.5,93C 272.455,108.391 272.455,124.057 272.5,140C 279.356,141.134 286.356,141.967 293.5,142.5C 294.125,145.612 294.459,148.779 294.5,152C 294.481,155.252 293.814,158.085 292.5,160.5C 292.5,154.833 292.5,149.167 292.5,143.5C 286.5,143.5 280.5,143.5 274.5,143.5C 274.5,144.5 274.5,145.5 274.5,146.5C 278.833,146.5 283.167,146.5 287.5,146.5C 287.5,146.833 287.5,147.167 287.5,147.5C 268.833,147.833 268.833,148.167 287.5,148.5C 287.768,150.099 287.434,151.432 286.5,152.5C 286.5,151.5 286.5,150.5 286.5,149.5C 281.167,149.5 275.833,149.5 270.5,149.5C 270.5,129.833 270.5,110.167 270.5,90.5 Z"/></g>
<g><path style="opacity:1" fill="#eaeaea" d="M 623.5,160.5 C 619.778,161.32 617.445,159.987 616.5,156.5C 616.804,155.85 617.137,155.183 617.5,154.5C 614.896,148.276 611.563,142.609 607.5,137.5C 605.872,132.91 603.705,128.577 601,124.5C 598.665,134.012 597.165,143.679 596.5,153.5C 595.167,153.5 593.833,153.5 592.5,153.5C 594.126,140.077 596.293,126.743 599,113.5C 607.702,128.905 615.869,144.572 623.5,160.5 Z"/></g>
<g><path style="opacity:0.982" fill="#aeaeae" d="M 261.5,90.5 C 263.167,90.5 264.833,90.5 266.5,90.5C 264.665,97.3232 263.998,104.323 264.5,111.5C 265.612,125.506 265.612,139.506 264.5,153.5C 262.901,153.768 261.568,153.434 260.5,152.5C 261.5,152.5 262.5,152.5 263.5,152.5C 264.137,131.601 263.47,110.934 261.5,90.5 Z"/></g>
<g><path style="opacity:0.281" fill="#cccccc" d="M 325.5,90.5 C 327.527,90.3379 329.527,90.5045 331.5,91C 331.437,105.709 331.437,120.542 331.5,135.5C 331.5,136.5 331.5,137.5 331.5,138.5C 330.732,137.737 330.232,136.737 330,135.5C 329.5,121.171 329.333,106.837 329.5,92.5C 327.62,92.7709 326.287,92.1042 325.5,90.5 Z"/></g>
<g><path style="opacity:0.254" fill="#c4c4c4" d="M 369.5,92.5 C 370.167,93.1667 370.833,93.8333 371.5,94.5C 371.229,106.689 371.562,118.523 372.5,130C 371.863,134.341 370.863,138.508 369.5,142.5C 369.433,126.042 369.433,109.376 369.5,92.5 Z"/></g>
<g><path style="opacity:0.98" fill="#979797" d="M 326.5,95.5 C 327.496,108.99 327.829,122.656 327.5,136.5C 326.833,129.988 326.167,123.321 325.5,116.5C 325.625,123.478 325.291,130.478 324.5,137.5C 323.505,124.677 323.171,111.677 323.5,98.5C 324.194,101.421 325.027,104.421 326,107.5C 326.499,103.848 326.665,100.182 326.5,96.5C 326.5,96.1667 326.5,95.8333 326.5,95.5 Z"/></g>
<g><path style="opacity:0.703" fill="#afafaf" d="M 405.5,92.5 C 395.913,97.2561 388.746,104.589 384,114.5C 380.342,129.382 384.175,141.882 395.5,152C 400.653,154.754 405.653,157.587 410.5,160.5C 385.79,153.093 376.623,136.76 383,111.5C 387.586,101.75 395.086,95.4169 405.5,92.5 Z"/></g>
<g><path style="opacity:1" fill="#373737" d="M 626.5,159.5 C 625.609,160.11 624.609,160.443 623.5,160.5C 615.869,144.572 607.702,128.905 599,113.5C 596.293,126.743 594.126,140.077 592.5,153.5C 593.833,153.5 595.167,153.5 596.5,153.5C 597.165,143.679 598.665,134.012 601,124.5C 603.705,128.577 605.872,132.91 607.5,137.5C 606.791,138.404 605.791,138.737 604.5,138.5C 604.092,137.357 603.425,136.357 602.5,135.5C 600.722,142.055 599.722,148.721 599.5,155.5C 596.167,155.5 592.833,155.5 589.5,155.5C 591.676,138.09 594.343,120.756 597.5,103.5C 607.738,121.98 617.405,140.647 626.5,159.5 Z"/></g>
<g><path style="opacity:0.298" fill="#b0b0b0" d="M 468.5,93.5 C 468.096,94.7564 467.429,95.9231 466.5,97C 466.57,97.7648 466.903,98.2648 467.5,98.5C 467.5,98.8333 467.5,99.1667 467.5,99.5C 466.833,99.8333 466.167,100.167 465.5,100.5C 465.728,98.6453 465.061,97.8119 463.5,98C 453.125,106.258 447.792,117.091 447.5,130.5C 445.445,113.182 452.445,100.849 468.5,93.5 Z"/></g>
<g><path style="opacity:0.99" fill="#151515" d="M 50.5,143.5 C 49.5,143.5 48.5,143.5 47.5,143.5C 47.8333,141.5 48.1667,139.5 48.5,137.5C 65.9649,119.535 83.6316,101.701 101.5,84C 103.391,83.6913 104.725,84.5247 105.5,86.5C 86.7815,105.217 68.4482,124.217 50.5,143.5 Z"/></g>
<g><path style="opacity:0.727" fill="#8c8c8c" d="M 643.5,91.5 C 637.568,103.127 631.568,114.794 625.5,126.5C 624.391,126.557 623.391,126.89 622.5,127.5C 619.54,124.9 618.206,121.567 618.5,117.5C 620.081,119.674 621.581,122.007 623,124.5C 628.568,114.079 634.401,103.745 640.5,93.5C 641.357,92.5748 642.357,91.9081 643.5,91.5 Z"/></g>
<g><path style="opacity:0.385" fill="#656565" d="M 188.5,115.5 C 189.376,115.369 190.043,115.702 190.5,116.5C 189.757,117.182 189.091,117.849 188.5,118.5C 188.833,119.833 189.167,119.833 189.5,118.5C 190.492,118.328 191.158,118.662 191.5,119.5C 183.5,128.167 175.167,136.5 166.5,144.5C 165.069,143.22 164.402,141.553 164.5,139.5C 172.167,131.167 180.167,123.167 188.5,115.5 Z"/></g>
<g><path style="opacity:0.382" fill="#bdbdbd" d="M 676.5,116.5 C 679.353,121.552 682.687,126.218 686.5,130.5C 681.85,128.578 678.517,125.245 676.5,120.5C 676.5,119.167 676.5,117.833 676.5,116.5 Z"/></g>
<g><path style="opacity:0.69" fill="#575757" d="M 327.5,136.5 C 327.5,136.833 327.5,137.167 327.5,137.5C 326.791,138.404 325.791,138.737 324.5,138.5C 324.5,138.167 324.5,137.833 324.5,137.5C 325.291,130.478 325.625,123.478 325.5,116.5C 326.167,123.321 326.833,129.988 327.5,136.5 Z"/></g>
<g><path style="opacity:0.427" fill="#ababab" d="M 118.5,140.5 C 120.129,141.625 121.629,142.959 123,144.5C 129.5,138 136,131.5 142.5,125C 136.167,119.333 130.167,113.333 124.5,107C 123.552,106.517 122.552,106.351 121.5,106.5C 121.5,105.5 121.5,104.5 121.5,103.5C 122.552,103.351 123.552,103.517 124.5,104C 131.544,110.709 138.211,117.709 144.5,125C 137.766,132.738 130.599,140.238 123,147.5C 120.418,145.772 118.918,143.439 118.5,140.5 Z"/></g>
<g><path style="opacity:1" fill="#efefef" d="M 556.5,91.5 C 561.181,94.3464 566.181,97.0131 571.5,99.5C 572.665,100.86 572.332,101.86 570.5,102.5C 561.663,96.7078 551.996,94.5411 541.5,96C 530.097,102.218 527.597,111.052 534,122.5C 539.926,127.697 546.76,131.197 554.5,133C 559.951,137.754 559.617,142.087 553.5,146C 546.848,147.221 540.681,146.054 535,142.5C 532.551,144.73 531.218,147.397 531,150.5C 538.553,155.127 546.719,156.627 555.5,155C 565.364,151.12 569.197,143.953 567,133.5C 565.623,131.246 564.123,129.08 562.5,127C 556.992,123.246 550.992,120.58 544.5,119C 538.245,114.733 537.912,110.067 543.5,105C 550.266,104.481 556.766,105.647 563,108.5C 564.257,108.15 564.591,107.483 564,106.5C 557.755,102.307 550.922,100.807 543.5,102C 536.208,105.915 534.708,111.415 539,118.5C 545.442,122.429 552.275,125.596 559.5,128C 565.215,133.747 566.048,140.247 562,147.5C 560.269,149.617 558.102,151.117 555.5,152C 548.539,153.195 541.872,152.362 535.5,149.5C 534.614,148.675 534.281,147.675 534.5,146.5C 537.947,146.814 541.28,147.648 544.5,149C 553.763,151.045 559.429,147.545 561.5,138.5C 561.444,135.889 560.444,133.722 558.5,132C 551.107,128.875 543.941,125.375 537,121.5C 530.304,108.557 534.137,100.557 548.5,97.5C 556.129,98.0368 562.796,100.703 568.5,105.5C 568.008,108.486 566.508,110.819 564,112.5C 557.936,108.919 551.436,107.419 544.5,108C 541.626,111.051 541.959,113.718 545.5,116C 551.468,117.577 557.135,119.91 562.5,123C 570.199,129.625 572.365,137.791 569,147.5C 567.192,149.033 566.692,150.7 567.5,152.5C 562.984,158.52 556.817,161.187 549,160.5C 541.035,160.134 533.535,158.134 526.5,154.5C 526.579,153.07 526.246,151.736 525.5,150.5C 528.098,146.294 530.931,142.294 534,138.5C 540.064,142.081 546.564,143.581 553.5,143C 556.374,139.949 556.041,137.282 552.5,135C 547.406,132.579 542.072,131.079 536.5,130.5C 534.241,127.062 531.741,123.729 529,120.5C 527.064,114.848 527.064,109.182 529,103.5C 531.741,100.271 534.241,96.9378 536.5,93.5C 538.019,92.5902 539.685,91.7568 541.5,91C 546.684,90.1837 551.684,90.3503 556.5,91.5 Z"/></g>
<g><path style="opacity:1" fill="#393939" d="M 570.5,102.5 C 571.209,103.404 572.209,103.737 573.5,103.5C 573.167,104.5 572.5,105.167 571.5,105.5C 570.5,105.5 569.5,105.5 568.5,105.5C 562.796,100.703 556.129,98.0368 548.5,97.5C 534.137,100.557 530.304,108.557 537,121.5C 543.941,125.375 551.107,128.875 558.5,132C 560.444,133.722 561.444,135.889 561.5,138.5C 559.429,147.545 553.763,151.045 544.5,149C 541.28,147.648 537.947,146.814 534.5,146.5C 534.281,147.675 534.614,148.675 535.5,149.5C 541.872,152.362 548.539,153.195 555.5,152C 558.102,151.117 560.269,149.617 562,147.5C 566.048,140.247 565.215,133.747 559.5,128C 552.275,125.596 545.442,122.429 539,118.5C 534.708,111.415 536.208,105.915 543.5,102C 550.922,100.807 557.755,102.307 564,106.5C 564.591,107.483 564.257,108.15 563,108.5C 556.766,105.647 550.266,104.481 543.5,105C 537.912,110.067 538.245,114.733 544.5,119C 550.992,120.58 556.992,123.246 562.5,127C 564.123,129.08 565.623,131.246 567,133.5C 569.197,143.953 565.364,151.12 555.5,155C 546.719,156.627 538.553,155.127 531,150.5C 531.218,147.397 532.551,144.73 535,142.5C 540.681,146.054 546.848,147.221 553.5,146C 559.617,142.087 559.951,137.754 554.5,133C 546.76,131.197 539.926,127.697 534,122.5C 527.597,111.052 530.097,102.218 541.5,96C 551.996,94.5411 561.663,96.7078 570.5,102.5 Z"/></g>
<g><path style="opacity:0.999" fill="#ededed" d="M 709.5,93.5 C 712.945,95.7258 716.611,97.7258 720.5,99.5C 721.665,100.86 721.332,101.86 719.5,102.5C 710.663,96.7078 700.996,94.5411 690.5,96C 678.398,102.993 676.398,112.16 684.5,123.5C 690.296,127.703 696.629,130.869 703.5,133C 708.951,137.754 708.617,142.087 702.5,146C 696.028,147.253 690.028,146.086 684.5,142.5C 682.11,144.267 680.443,146.6 679.5,149.5C 689.401,156.397 699.734,157.231 710.5,152C 717.043,145.402 718.209,137.902 714,129.5C 708.079,124.289 701.246,120.789 693.5,119C 686.863,114.233 686.863,109.566 693.5,105C 696.167,104.333 698.833,104.333 701.5,105C 705.531,106.173 709.531,107.34 713.5,108.5C 713.5,107.5 713.5,106.5 713.5,105.5C 708.346,103.562 703.013,102.229 697.5,101.5C 688.106,102.271 684.606,107.271 687,116.5C 688.5,118 690,119.5 691.5,121C 697.167,123.333 702.833,125.667 708.5,128C 713.835,133.189 715.002,139.356 712,146.5C 710.039,149.135 707.539,150.969 704.5,152C 699.833,152.667 695.167,152.667 690.5,152C 687.888,151.361 685.554,150.194 683.5,148.5C 684,147.119 685,146.453 686.5,146.5C 691.556,149.117 696.889,149.951 702.5,149C 709.734,145.966 711.901,140.799 709,133.5C 703.774,129.529 697.94,126.696 691.5,125C 681.714,119.008 680.048,111.341 686.5,102C 697.229,96.8383 707.563,97.6717 717.5,104.5C 717.923,105.265 718.257,106.098 718.5,107C 717.115,108.597 716.449,110.43 716.5,112.5C 715.817,114.176 714.483,114.843 712.5,114.5C 712.5,113.5 712.5,112.5 712.5,111.5C 707.931,109.481 703.097,108.148 698,107.5C 693.63,107.936 691.963,110.269 693,114.5C 699.176,117.257 705.343,120.09 711.5,123C 715.174,126.155 718.174,129.655 720.5,133.5C 723.373,150.735 716.04,159.735 698.5,160.5C 691.417,160.352 684.751,158.685 678.5,155.5C 678.112,153.315 677.112,151.482 675.5,150C 677.328,146.011 679.661,142.345 682.5,139C 687.607,141.442 693.107,142.942 699,143.5C 705.167,142.338 706,139.505 701.5,135C 696.676,132.78 691.676,131.28 686.5,130.5C 682.687,126.218 679.353,121.552 676.5,116.5C 676.21,112.064 676.71,107.73 678,103.5C 681.413,98.9242 685.246,94.9242 689.5,91.5C 693.532,90.8961 698.032,90.5627 703,90.5C 705.294,91.4217 707.461,92.4217 709.5,93.5 Z"/></g>
<g><path style="opacity:1" fill="#1e1e1e" d="M 63.5,150.5 C 61.2043,150.196 60.871,149.196 62.5,147.5C 63.8333,147.167 63.8333,146.833 62.5,146.5C 62.5,145.5 62.5,144.5 62.5,143.5C 78.6316,126.868 94.9649,110.368 111.5,94C 113.391,93.6913 114.725,94.5247 115.5,96.5C 98.5368,114.798 81.2035,132.798 63.5,150.5 Z"/></g>
<g><path style="opacity:0.208" fill="#a9a9a9" d="M 593.5,94.5 C 594.167,94.5 594.833,94.5 595.5,94.5C 591.841,116.438 588.507,138.438 585.5,160.5C 584.305,160.134 583.639,159.301 583.5,158C 586.549,136.775 589.882,115.609 593.5,94.5 Z"/></g>
<g><path style="opacity:0.343" fill="#9e9e9e" d="M 110.5,147.5 C 107.53,148.359 106.53,150.026 107.5,152.5C 102.479,147.312 97.3127,142.312 92,137.5C 90.8847,133.979 92.0514,132.146 95.5,132C 100.703,137.035 105.703,142.202 110.5,147.5 Z M 95.5,136.5 C 96.8333,136.5 97.5,137.167 97.5,138.5C 96.5,138.167 95.8333,137.5 95.5,136.5 Z"/></g>
<g><path style="opacity:1" fill="#373737" d="M 598.5,90.5 C 607.387,107.938 616.553,125.271 626,142.5C 626.667,143.833 627.333,143.833 628,142.5C 631.078,136.009 634.412,129.675 638,123.5C 639.577,127.283 640.411,131.283 640.5,135.5C 640.179,137.048 639.179,137.715 637.5,137.5C 637.762,136.022 637.429,134.689 636.5,133.5C 635.893,133.624 635.56,133.957 635.5,134.5C 632.934,139.965 630.101,145.298 627,150.5C 617,131.833 607,113.167 597,94.5C 596.31,93.2617 595.81,93.2617 595.5,94.5C 594.833,94.5 594.167,94.5 593.5,94.5C 593.787,91.5159 595.454,90.1826 598.5,90.5 Z"/></g>
<g><path style="opacity:1" fill="#eaeaea" d="M 433.5,95.5 C 434.591,98.4278 436.591,100.594 439.5,102C 438.975,102.692 438.308,103.192 437.5,103.5C 431.672,97.4088 424.672,95.0755 416.5,96.5C 415.833,96.5 415.167,96.5 414.5,96.5C 412.167,95.1667 409.833,95.1667 407.5,96.5C 403.728,96.8838 400.728,98.5505 398.5,101.5C 387.121,109.291 383.287,119.958 387,133.5C 393.228,150.537 405.395,157.704 423.5,155C 427.83,153.839 431.497,151.673 434.5,148.5C 433.479,147.099 432.479,145.765 431.5,144.5C 431.092,143.357 430.425,142.357 429.5,141.5C 427.259,142.129 425.259,143.129 423.5,144.5C 413.479,147.048 405.146,144.382 398.5,136.5C 396.462,131.716 395.462,126.716 395.5,121.5C 397.736,116.715 400.736,112.382 404.5,108.5C 406.167,107.833 407.833,107.167 409.5,106.5C 413.5,105.167 417.5,105.167 421.5,106.5C 423.991,106.829 426.157,107.829 428,109.5C 428.833,108.667 429.667,107.833 430.5,107C 428.027,104.453 425.027,102.953 421.5,102.5C 418.024,101.357 414.358,101.19 410.5,102C 408.509,102.374 406.842,103.207 405.5,104.5C 398.338,107.469 394.005,112.802 392.5,120.5C 391.89,126.511 392.89,132.178 395.5,137.5C 401.764,148.029 410.764,151.696 422.5,148.5C 424.746,147.545 427.079,146.878 429.5,146.5C 430.076,149.127 428.742,150.627 425.5,151C 400.684,155.186 388.518,144.686 389,119.5C 391.136,112.217 395.303,106.55 401.5,102.5C 403.954,100.94 406.62,99.9402 409.5,99.5C 418.621,97.4884 426.787,99.4884 434,105.5C 434.494,107.134 434.66,108.801 434.5,110.5C 432.854,112.146 431.188,113.812 429.5,115.5C 426.867,114.227 423.867,112.727 420.5,111C 409.143,109.684 402.476,114.684 400.5,126C 401.604,134.937 406.604,140.104 415.5,141.5C 420.792,139.344 426.126,137.511 431.5,136C 435.216,140.385 438.55,145.051 441.5,150C 436.255,155.126 429.922,158.459 422.5,160C 418.514,160.499 414.514,160.666 410.5,160.5C 405.653,157.587 400.653,154.754 395.5,152C 384.175,141.882 380.342,129.382 384,114.5C 388.746,104.589 395.913,97.2561 405.5,92.5C 407.352,91.9111 409.185,91.2444 411,90.5C 414.333,91.8333 417.667,91.8333 421,90.5C 425.286,92.1011 429.453,93.7678 433.5,95.5 Z"/></g>
<g><path style="opacity:0.804" fill="#373737" d="M 392.5,120.5 C 393.791,120.263 394.791,120.596 395.5,121.5C 395.462,126.716 396.462,131.716 398.5,136.5C 398.631,137.239 398.464,137.906 398,138.5C 397.329,137.748 396.496,137.414 395.5,137.5C 392.89,132.178 391.89,126.511 392.5,120.5 Z"/></g>
<g><path style="opacity:0.429" fill="#9b9b9b" d="M 405.5,104.5 C 404.859,105.482 404.193,106.482 403.5,107.5C 403.624,108.107 403.957,108.44 404.5,108.5C 400.736,112.382 397.736,116.715 395.5,121.5C 394.791,120.596 393.791,120.263 392.5,120.5C 394.005,112.802 398.338,107.469 405.5,104.5 Z"/></g>
<g><path style="opacity:0.639" fill="#595859" d="M 405.5,104.5 C 407.483,104.157 408.817,104.824 409.5,106.5C 407.833,107.167 406.167,107.833 404.5,108.5C 403.957,108.44 403.624,108.107 403.5,107.5C 404.193,106.482 404.859,105.482 405.5,104.5 Z"/></g>
<g><path style="opacity:0.621" fill="#555555" d="M 421.5,102.5 C 425.027,102.953 428.027,104.453 430.5,107C 429.667,107.833 428.833,108.667 428,109.5C 426.157,107.829 423.991,106.829 421.5,106.5C 420.167,105.167 420.167,103.833 421.5,102.5 Z"/></g>
<g><path style="opacity:0.473" fill="#9b9b9b" d="M 421.5,102.5 C 420.167,103.833 420.167,105.167 421.5,106.5C 417.5,105.167 413.5,105.167 409.5,106.5C 408.817,104.824 407.483,104.157 405.5,104.5C 406.842,103.207 408.509,102.374 410.5,102C 414.358,101.19 418.024,101.357 421.5,102.5 Z"/></g>
<g><path style="opacity:0.82" fill="#6d6d6d" d="M 407.5,96.5 C 409.199,96.3398 410.866,96.5065 412.5,97C 411.058,97.3768 410.058,98.2101 409.5,99.5C 406.62,99.9402 403.954,100.94 401.5,102.5C 400.791,101.596 399.791,101.263 398.5,101.5C 400.728,98.5505 403.728,96.8838 407.5,96.5 Z"/></g>
<g><path style="opacity:0.973" fill="#323232" d="M 398.5,101.5 C 399.791,101.263 400.791,101.596 401.5,102.5C 395.303,106.55 391.136,112.217 389,119.5C 388.518,144.686 400.684,155.186 425.5,151C 428.742,150.627 430.076,149.127 429.5,146.5C 429.833,145.5 430.5,144.833 431.5,144.5C 432.479,145.765 433.479,147.099 434.5,148.5C 431.497,151.673 427.83,153.839 423.5,155C 405.395,157.704 393.228,150.537 387,133.5C 383.287,119.958 387.121,109.291 398.5,101.5 Z"/></g>
<g><path style="opacity:0.604" fill="#b3b3b3" d="M 536.5,130.5 C 542.072,131.079 547.406,132.579 552.5,135C 556.041,137.282 556.374,139.949 553.5,143C 546.564,143.581 540.064,142.081 534,138.5C 530.931,142.294 528.098,146.294 525.5,150.5C 526.246,151.736 526.579,153.07 526.5,154.5C 525.188,153.188 523.854,151.854 522.5,150.5C 525.872,146.258 528.872,141.758 531.5,137C 533.167,136.333 534.833,136.333 536.5,137C 540.787,139.427 545.287,141.261 550,142.5C 552.439,141.138 552.939,139.305 551.5,137C 546.358,134.906 541.358,132.74 536.5,130.5 Z"/></g>
<g><path style="opacity:0.23" fill="#bdbdbd" d="M 686.5,130.5 C 691.676,131.28 696.676,132.78 701.5,135C 706,139.505 705.167,142.338 699,143.5C 693.107,142.942 687.607,141.442 682.5,139C 679.661,142.345 677.328,146.011 675.5,150C 677.112,151.482 678.112,153.315 678.5,155.5C 675.885,154.55 673.885,152.883 672.5,150.5C 675.13,146.19 677.797,141.857 680.5,137.5C 682.074,136.369 683.741,136.202 685.5,137C 689.756,139.548 694.256,141.382 699,142.5C 701.439,141.138 701.939,139.305 700.5,137C 695.569,135.094 690.902,132.927 686.5,130.5 Z"/></g>
<g><path style="opacity:0.894" fill="#222222" d="M 173.5,110.5 C 174.5,110.5 175.5,110.5 176.5,110.5C 176.5,111.833 176.5,113.167 176.5,114.5C 159.497,130.503 143.163,147.17 127.5,164.5C 125.088,164.306 124.088,162.973 124.5,160.5C 140.136,143.197 156.469,126.53 173.5,110.5 Z"/></g>
<g><path style="opacity:0.398" fill="#b3b3b3" d="M 398.5,136.5 C 405.146,144.382 413.479,147.048 423.5,144.5C 423.167,145.833 422.833,147.167 422.5,148.5C 410.764,151.696 401.764,148.029 395.5,137.5C 396.496,137.414 397.329,137.748 398,138.5C 398.464,137.906 398.631,137.239 398.5,136.5 Z"/></g>
<g><path style="opacity:0.31" fill="#767676" d="M 431.5,144.5 C 430.5,144.833 429.833,145.5 429.5,146.5C 427.079,146.878 424.746,147.545 422.5,148.5C 422.833,147.167 423.167,145.833 423.5,144.5C 425.259,143.129 427.259,142.129 429.5,141.5C 430.425,142.357 431.092,143.357 431.5,144.5 Z"/></g>
<g><path style="opacity:0.469" fill="#9d9d9d" d="M 607.5,137.5 C 611.563,142.609 614.896,148.276 617.5,154.5C 617.137,155.183 616.804,155.85 616.5,156.5C 613.511,151.862 610.511,147.195 607.5,142.5C 606.824,143.602 606.158,144.602 605.5,145.5C 604.781,143.236 604.448,140.903 604.5,138.5C 605.791,138.737 606.791,138.404 607.5,137.5 Z"/></g>
<g><path style="opacity:1" fill="#3e3e3e" d="M 719.5,102.5 C 719.5,103.833 718.833,104.5 717.5,104.5C 707.563,97.6717 697.229,96.8383 686.5,102C 680.048,111.341 681.714,119.008 691.5,125C 697.94,126.696 703.774,129.529 709,133.5C 711.901,140.799 709.734,145.966 702.5,149C 696.889,149.951 691.556,149.117 686.5,146.5C 685,146.453 684,147.119 683.5,148.5C 685.554,150.194 687.888,151.361 690.5,152C 695.167,152.667 699.833,152.667 704.5,152C 707.539,150.969 710.039,149.135 712,146.5C 715.002,139.356 713.835,133.189 708.5,128C 702.833,125.667 697.167,123.333 691.5,121C 690,119.5 688.5,118 687,116.5C 684.606,107.271 688.106,102.271 697.5,101.5C 703.013,102.229 708.346,103.562 713.5,105.5C 713.5,106.5 713.5,107.5 713.5,108.5C 709.531,107.34 705.531,106.173 701.5,105C 698.833,104.333 696.167,104.333 693.5,105C 686.863,109.566 686.863,114.233 693.5,119C 701.246,120.789 708.079,124.289 714,129.5C 718.209,137.902 717.043,145.402 710.5,152C 699.734,157.231 689.401,156.397 679.5,149.5C 680.443,146.6 682.11,144.267 684.5,142.5C 690.028,146.086 696.028,147.253 702.5,146C 708.617,142.087 708.951,137.754 703.5,133C 696.629,130.869 690.296,127.703 684.5,123.5C 676.398,112.16 678.398,102.993 690.5,96C 700.996,94.5411 710.663,96.7078 719.5,102.5 Z"/></g>
<g><path style="opacity:0.551" fill="#c2c2c2" d="M 369.5,143.5 C 369.509,145.308 369.009,146.975 368,148.5C 366,151.666 363.5,154.332 360.5,156.5C 360.351,155.448 360.517,154.448 361,153.5C 363.632,149.838 366.466,146.505 369.5,143.5 Z"/></g>
<g><path style="opacity:0.437" fill="#a3a3a3" d="M 635.5,134.5 C 635.56,133.957 635.893,133.624 636.5,133.5C 637.429,134.689 637.762,136.022 637.5,137.5C 639.179,137.715 640.179,137.048 640.5,135.5C 642.319,143.622 643.653,151.956 644.5,160.5C 643.069,160.119 642.236,159.119 642,157.5C 641.16,151.806 640.16,146.139 639,140.5C 637.284,144.546 635.117,148.213 632.5,151.5C 632.077,150.735 631.743,149.902 631.5,149C 633.12,146.262 634.62,143.428 636,140.5C 636.789,138.288 636.622,136.288 635.5,134.5 Z"/></g>
<g><path style="opacity:0.798" fill="#8a8a8a" d="M 356.5,136.5 C 356.632,139.007 357.632,139.674 359.5,138.5C 356.426,146.713 350.426,150.38 341.5,149.5C 332.896,150.049 327.229,146.382 324.5,138.5C 325.791,138.737 326.791,138.404 327.5,137.5C 329.969,143.458 334.469,146.458 341,146.5C 348.473,146.495 353.639,143.162 356.5,136.5 Z"/></g>
<g><path style="opacity:0.316" fill="#8f8f8f" d="M 164.5,139.5 C 164.402,141.553 165.069,143.22 166.5,144.5C 158.869,152.632 151.036,160.632 143,168.5C 142.209,169.745 141.709,171.078 141.5,172.5C 140.5,172.5 139.5,172.5 138.5,172.5C 138.5,174.5 138.5,176.5 138.5,178.5C 137.5,178.5 136.5,178.5 135.5,178.5C 133.955,173.228 135.122,168.561 139,164.5C 147.368,155.964 155.868,147.631 164.5,139.5 Z"/></g>
<g><path style="opacity:0.987" fill="#222222" d="M 260.5,95.5 C 260.5,114.5 260.5,133.5 260.5,152.5C 261.568,153.434 262.901,153.768 264.5,153.5C 265.612,139.506 265.612,125.506 264.5,111.5C 265.5,111.5 266.5,111.5 267.5,111.5C 267.5,125.5 267.5,139.5 267.5,153.5C 274.022,153.823 280.355,153.49 286.5,152.5C 287.434,151.432 287.768,150.099 287.5,148.5C 287.5,148.167 287.5,147.833 287.5,147.5C 287.5,147.167 287.5,146.833 287.5,146.5C 289.388,148.988 290.055,151.988 289.5,155.5C 279.167,155.5 268.833,155.5 258.5,155.5C 257.845,135.139 258.512,115.139 260.5,95.5 Z"/></g>
<g><path style="opacity:0.993" fill="#eeeeee" d="M 492.5,91.5 C 492.369,92.3764 492.702,93.0431 493.5,93.5C 500.702,96.097 506.369,100.597 510.5,107C 511.448,107.483 512.448,107.649 513.5,107.5C 517.202,114.802 518.536,122.468 517.5,130.5C 516.883,130.389 516.383,130.056 516,129.5C 513.773,143.559 505.939,152.892 492.5,157.5C 491.702,157.957 491.369,158.624 491.5,159.5C 485.864,160.79 480.198,160.79 474.5,159.5C 468.883,156.256 463.383,152.589 458,148.5C 456.374,145.872 454.374,143.539 452,141.5C 451.779,137.404 450.279,134.07 447.5,131.5C 447.5,131.167 447.5,130.833 447.5,130.5C 447.792,117.091 453.125,106.258 463.5,98C 465.061,97.8119 465.728,98.6453 465.5,100.5C 453.413,109.263 449.579,120.93 454,135.5C 460.674,151.256 472.507,157.756 489.5,155C 509.722,148.032 516.888,134.199 511,113.5C 507.985,106.653 503.152,101.653 496.5,98.5C 486.929,93.1828 477.262,93.1828 467.5,98.5C 466.903,98.2648 466.57,97.7648 466.5,97C 467.429,95.9231 468.096,94.7564 468.5,93.5C 475.961,90.486 483.961,89.8193 492.5,91.5 Z M 472.5,137.5 C 468.221,133.217 466.221,128.55 466.5,123.5C 471.247,110.306 479.914,106.806 492.5,113C 501.067,123.037 500.067,132.037 489.5,140C 483.325,142.38 477.658,141.547 472.5,137.5 Z"/></g>
<g><path style="opacity:0.998" fill="#343434" d="M 471.5,99.5 C 454.624,109.716 450.79,123.716 460,141.5C 471.064,153.644 483.898,155.811 498.5,148C 510.651,136.596 512.818,123.43 505,108.5C 502.225,105.22 499.058,102.554 495.5,100.5C 495.328,99.5084 495.662,98.8417 496.5,98.5C 503.152,101.653 507.985,106.653 511,113.5C 516.888,134.199 509.722,148.032 489.5,155C 472.507,157.756 460.674,151.256 454,135.5C 449.579,120.93 453.413,109.263 465.5,100.5C 466.167,100.167 466.833,99.8333 467.5,99.5C 469.035,98.6457 470.368,98.6457 471.5,99.5 Z M 472.5,137.5 C 468.221,133.217 466.221,128.55 466.5,123.5C 471.247,110.306 479.914,106.806 492.5,113C 501.067,123.037 500.067,132.037 489.5,140C 483.325,142.38 477.658,141.547 472.5,137.5 Z"/></g>
<g><path style="opacity:1" fill="#f0f0f0" d="M 495.5,100.5 C 499.058,102.554 502.225,105.22 505,108.5C 512.818,123.43 510.651,136.596 498.5,148C 483.898,155.811 471.064,153.644 460,141.5C 450.79,123.716 454.624,109.716 471.5,99.5C 479.599,97.9362 487.599,98.2695 495.5,100.5 Z M 472.5,137.5 C 468.221,133.217 466.221,128.55 466.5,123.5C 471.247,110.306 479.914,106.806 492.5,113C 501.067,123.037 500.067,132.037 489.5,140C 483.325,142.38 477.658,141.547 472.5,137.5 Z"/></g>
<g><path style="opacity:0.861" fill="#5c5c5c" d="M 501.5,135.5 C 502.202,136.116 503.202,136.116 504.5,135.5C 497.731,147.893 487.731,151.893 474.5,147.5C 475.833,147.5 476.5,146.833 476.5,145.5C 487.103,147.636 495.436,144.303 501.5,135.5 Z"/></g>
<g><path style="opacity:0.989" fill="#3c3c3c" d="M 460.5,116.5 C 461.833,116.5 462.5,117.167 462.5,118.5C 459.528,131.557 464.194,140.557 476.5,145.5C 476.5,146.833 475.833,147.5 474.5,147.5C 468.303,145.473 463.803,141.473 461,135.5C 457.941,129.108 457.774,122.775 460.5,116.5 Z"/></g>
<g><path style="opacity:0.997" fill="#333333" d="M 483.5,102.5 C 485.167,102.5 486.833,102.5 488.5,102.5C 504.228,108.292 509.561,119.292 504.5,135.5C 503.202,136.116 502.202,136.116 501.5,135.5C 506.577,118.647 500.577,108.314 483.5,104.5C 483.5,104.167 483.5,103.833 483.5,103.5C 483.5,103.167 483.5,102.833 483.5,102.5 Z"/></g>
<g><path style="opacity:0.588" fill="#808080" d="M 488.5,102.5 C 486.833,102.5 485.167,102.5 483.5,102.5C 480.833,102.833 480.833,103.167 483.5,103.5C 483.5,103.833 483.5,104.167 483.5,104.5C 473.55,104.961 466.55,109.627 462.5,118.5C 462.5,117.167 461.833,116.5 460.5,116.5C 466.146,104.343 475.48,99.6767 488.5,102.5 Z"/></g>
<g><path style="opacity:1" fill="#f0eff0" d="M 483.5,104.5 C 500.577,108.314 506.577,118.647 501.5,135.5C 495.436,144.303 487.103,147.636 476.5,145.5C 464.194,140.557 459.528,131.557 462.5,118.5C 466.55,109.627 473.55,104.961 483.5,104.5 Z M 472.5,137.5 C 468.221,133.217 466.221,128.55 466.5,123.5C 471.247,110.306 479.914,106.806 492.5,113C 501.067,123.037 500.067,132.037 489.5,140C 483.325,142.38 477.658,141.547 472.5,137.5 Z"/></g>
<g><path style="opacity:0.429" fill="#c3c3c3" d="M 472.5,137.5 C 477.658,141.547 483.325,142.38 489.5,140C 500.067,132.037 501.067,123.037 492.5,113C 479.914,106.806 471.247,110.306 466.5,123.5C 465.959,115.169 469.959,110.003 478.5,108C 493.232,107.068 500.399,113.901 500,128.5C 495.63,141.934 486.797,146.1 473.5,141C 472.663,139.989 472.33,138.822 472.5,137.5 Z"/></g>
<g><path style="opacity:0.461" fill="#7c7c7c" d="M 496.5,98.5 C 495.662,98.8417 495.328,99.5084 495.5,100.5C 487.599,98.2695 479.599,97.9362 471.5,99.5C 470.368,98.6457 469.035,98.6457 467.5,99.5C 467.5,99.1667 467.5,98.8333 467.5,98.5C 477.262,93.1828 486.929,93.1828 496.5,98.5 Z"/></g>
<g><path style="opacity:0.275" fill="#a9a9a9" d="M 72.5,152.5 C 73.552,152.351 74.552,152.517 75.5,153C 81.8946,159.64 88.3946,166.14 95,172.5C 94.6601,176.842 92.1601,179.342 87.5,180C 75.9886,181.491 69.3219,176.491 67.5,165C 67.9373,160.299 69.6039,156.132 72.5,152.5 Z M 73.5,155.5 C 71.363,158.11 70.0297,161.11 69.5,164.5C 71.3938,174.568 77.3938,179.068 87.5,178C 91.5795,177.005 92.7462,174.839 91,171.5C 85.6018,165.598 79.7684,160.264 73.5,155.5 Z"/></g>
<g><path style="opacity:0.435" fill="#888888" d="M 98.5,156.5 C 97.5,156.5 96.5,156.5 95.5,156.5C 94.8902,157.391 94.5569,158.391 94.5,159.5C 89.7021,155.203 85.0355,150.703 80.5,146C 81.7657,144.017 83.4324,143.017 85.5,143C 90.0367,147.369 94.3701,151.869 98.5,156.5 Z"/></g>
<g><path style="opacity:0.961" fill="#282828" d="M 363.5,93.5 C 364.5,93.5 365.5,93.5 366.5,93.5C 366.667,108.17 366.5,122.837 366,137.5C 365.297,142.738 363.13,147.238 359.5,151C 350.989,155.25 341.989,156.584 332.5,155C 325.325,152.99 320.658,148.49 318.5,141.5C 318.402,138.752 319.402,138.086 321.5,139.5C 322.489,145.952 326.155,150.118 332.5,152C 338.167,152.667 343.833,152.667 349.5,152C 357.521,149.975 362.021,144.808 363,136.5C 363.5,122.171 363.667,107.837 363.5,93.5 Z"/></g>
<g><path style="opacity:0.392" fill="#bababa" d="M 324.5,90.5 C 324.389,91.1174 324.056,91.6174 323.5,92C 320.518,92.498 317.518,92.6646 314.5,92.5C 314.333,108.837 314.5,125.17 315,141.5C 317.9,148.553 322.4,154.219 328.5,158.5C 320.47,155.63 315.304,149.963 313,141.5C 312.764,139.236 312.264,137.069 311.5,135C 311.59,120.538 311.923,105.705 312.5,90.5C 316.5,90.5 320.5,90.5 324.5,90.5 Z"/></g>
<g><path style="opacity:0.275" fill="#858585" d="M 62.5,143.5 C 62.5,144.5 62.5,145.5 62.5,146.5C 61.1667,146.833 61.1667,147.167 62.5,147.5C 60.871,149.196 61.2043,150.196 63.5,150.5C 61.6418,152.883 60.3084,155.55 59.5,158.5C 58.0695,158.421 56.7362,158.754 55.5,159.5C 54.6143,158.675 54.281,157.675 54.5,156.5C 55.5576,151.123 58.2242,146.79 62.5,143.5 Z"/></g>
<g><path style="opacity:0.385" fill="#c5c5c5" d="M 447.5,131.5 C 450.279,134.07 451.779,137.404 452,141.5C 454.374,143.539 456.374,145.872 458,148.5C 463.383,152.589 468.883,156.256 474.5,159.5C 459.394,156.061 450.394,146.727 447.5,131.5 Z"/></g>
<g><path style="opacity:0.308" fill="#c8c8c8" d="M 517.5,130.5 C 515.173,145.828 506.506,155.495 491.5,159.5C 491.369,158.624 491.702,157.957 492.5,157.5C 505.939,152.892 513.773,143.559 516,129.5C 516.383,130.056 516.883,130.389 517.5,130.5 Z"/></g>
<g><path style="opacity:0.345" fill="#646464" d="M 110.5,147.5 C 114.884,151.906 119.051,156.572 123,161.5C 123.383,160.944 123.883,160.611 124.5,160.5C 124.088,162.973 125.088,164.306 127.5,164.5C 127.167,165.833 126.833,167.167 126.5,168.5C 125.833,168.5 125.167,168.5 124.5,168.5C 124.607,166.621 124.107,166.288 123,167.5C 122.819,170.695 122.319,173.695 121.5,176.5C 121.5,173.167 121.5,169.833 121.5,166.5C 120.5,166.5 119.5,166.5 118.5,166.5C 117.872,163.91 116.705,161.577 115,159.5C 112.054,157.569 109.554,155.236 107.5,152.5C 106.53,150.026 107.53,148.359 110.5,147.5 Z"/></g>
<g><path style="opacity:0.395" fill="#868686" d="M 48.5,137.5 C 48.1667,139.5 47.8333,141.5 47.5,143.5C 48.5,143.5 49.5,143.5 50.5,143.5C 45.3585,152.076 43.3585,161.41 44.5,171.5C 44.1583,172.338 43.4916,172.672 42.5,172.5C 42.5,167.167 42.5,161.833 42.5,156.5C 43.3382,156.158 43.6716,155.492 43.5,154.5C 43.5,153.5 43.5,152.5 43.5,151.5C 44.8333,150.833 44.8333,150.167 43.5,149.5C 42.6618,149.158 42.3284,148.492 42.5,147.5C 43.4977,143.495 45.4977,140.161 48.5,137.5 Z"/></g>
<g><path style="opacity:1" fill="#1c1c1c" d="M 95.5,156.5 C 96.5,156.5 97.5,156.5 98.5,156.5C 115.497,170.519 114.164,182.519 94.5,192.5C 93.8333,192.5 93.5,192.167 93.5,191.5C 94.1667,190.833 94.8333,190.167 95.5,189.5C 94.8333,189.5 94.1667,189.5 93.5,189.5C 93.5,188.833 93.5,188.167 93.5,187.5C 99.592,185.076 103.592,180.742 105.5,174.5C 105.423,172.701 104.923,171.034 104,169.5C 101.304,165.639 98.1373,162.306 94.5,159.5C 94.5569,158.391 94.8902,157.391 95.5,156.5 Z"/></g>
<g><path style="opacity:0.309" fill="#adadad" d="M 156.5,170.5 C 155.524,171.815 154.524,173.148 153.5,174.5C 157.508,178.09 162.175,179.257 167.5,178C 175.944,172.724 178.11,165.557 174,156.5C 173.329,155.748 172.496,155.414 171.5,155.5C 171.281,154.325 171.614,153.325 172.5,152.5C 179.923,159.933 180.423,167.933 174,176.5C 167.46,181.138 160.627,181.638 153.5,178C 149.387,173.793 150.387,171.293 156.5,170.5 Z"/></g>
<g><path style="opacity:0.226" fill="#a7a7a7" d="M 54.5,156.5 C 54.281,157.675 54.6143,158.675 55.5,159.5C 56.7362,158.754 58.0695,158.421 59.5,158.5C 57.5953,170.52 61.5953,180.02 71.5,187C 78.823,190.004 86.1563,190.171 93.5,187.5C 93.5,188.167 93.5,188.833 93.5,189.5C 90.0936,190.43 86.5936,191.097 83,191.5C 78.4314,190.732 73.9314,189.732 69.5,188.5C 76.8309,193.784 84.8309,194.784 93.5,191.5C 93.5,192.167 93.8333,192.5 94.5,192.5C 80.8778,197.469 69.0444,194.469 59,183.5C 53.7448,174.985 52.2448,165.985 54.5,156.5 Z M 61.5,181.5 C 63.1667,182.5 64.5,183.833 65.5,185.5C 63.1667,185.167 61.8333,183.833 61.5,181.5 Z M 65.5,185.5 C 67.4044,185.738 68.7377,186.738 69.5,188.5C 67.5956,188.262 66.2623,187.262 65.5,185.5 Z"/></g>
<g><path style="opacity:0.198" fill="#adadad" d="M 135.5,178.5 C 136.5,178.5 137.5,178.5 138.5,178.5C 138.5,176.5 138.5,174.5 138.5,172.5C 139.5,172.5 140.5,172.5 141.5,172.5C 140.592,174.452 140.759,176.452 142,178.5C 152.637,190.561 164.804,192.395 178.5,184C 190.318,171.299 190.318,158.632 178.5,146C 182.361,141.165 185.527,141.665 188,147.5C 195.758,162.949 193.591,176.782 181.5,189C 162.8,199.656 147.466,196.156 135.5,178.5 Z M 186.5,150.5 C 187.931,151.78 188.598,153.447 188.5,155.5C 187.069,154.22 186.402,152.553 186.5,150.5 Z M 186.5,150.5 C 186.382,147.75 185.049,145.75 182.5,144.5C 182.226,147.231 183.559,149.231 186.5,150.5 Z M 147.5,187.5 C 152.346,189.295 157.346,190.629 162.5,191.5C 167.241,190.752 171.907,189.752 176.5,188.5C 169.953,193.415 162.62,194.581 154.5,192C 151.761,190.974 149.428,189.474 147.5,187.5 Z M 183.5,182.5 C 183.167,184.833 181.833,186.167 179.5,186.5C 180.5,184.833 181.833,183.5 183.5,182.5 Z M 185.5,180.5 C 185.167,181.5 184.5,182.167 183.5,182.5C 183.5,181.167 184.167,180.5 185.5,180.5 Z"/></g>
<g><path style="opacity:0.299" fill="#a7a7a7" d="M 42.5,147.5 C 42.3284,148.492 42.6618,149.158 43.5,149.5C 43.5,150.167 43.5,150.833 43.5,151.5C 42.1667,152.5 42.1667,153.5 43.5,154.5C 43.6716,155.492 43.3382,156.158 42.5,156.5C 41.1553,159.051 40.4886,161.884 40.5,165C 40.4499,168.402 41.1166,170.902 42.5,172.5C 43.4916,172.672 44.1583,172.338 44.5,171.5C 47.5828,184.114 54.9161,193.614 66.5,200C 67.2524,200.671 67.5858,201.504 67.5,202.5C 65.5,201.833 63.5,201.167 61.5,200.5C 62.911,202.539 64.911,203.539 67.5,203.5C 68.2905,204.401 69.2905,205.068 70.5,205.5C 70.1667,206.167 69.8333,206.833 69.5,207.5C 42.4998,195.505 33.4998,175.505 42.5,147.5 Z M 48.5,188.5 C 48.5173,190.028 49.184,190.528 50.5,190C 49.9558,189.283 49.2891,188.783 48.5,188.5 Z M 44.5,180.5 C 44.6882,178.897 44.1882,177.563 43,176.5C 42.6522,178.14 43.1522,179.473 44.5,180.5 Z M 57.5,197.5 C 58.8333,197.5 59.5,198.167 59.5,199.5C 58.5,199.167 57.8333,198.5 57.5,197.5 Z M 51.5,192.5 C 52.8333,192.5 53.5,193.167 53.5,194.5C 52.5,194.167 51.8333,193.5 51.5,192.5 Z"/></g>
<g><path style="opacity:0.32" fill="#ababab" d="M 117.5,193.5 C 116.07,193.579 114.736,193.246 113.5,192.5C 111.736,194.278 109.736,195.611 107.5,196.5C 112.82,191.866 116.653,186.199 119,179.5C 119.768,175.08 119.602,170.747 118.5,166.5C 119.5,166.5 120.5,166.5 121.5,166.5C 121.5,169.833 121.5,173.167 121.5,176.5C 120.979,179.636 121.979,181.97 124.5,183.5C 123.706,178.45 123.706,173.45 124.5,168.5C 125.167,168.5 125.833,168.5 126.5,168.5C 125.489,175.799 126.989,182.466 131,188.5C 146.058,204.815 163.558,207.981 183.5,198C 200.658,184.887 205.492,168.054 198,147.5C 195.361,143.361 192.528,139.361 189.5,135.5C 190.48,134.019 191.647,132.685 193,131.5C 207.642,146.037 211.309,163.037 204,182.5C 193.767,202.704 177.267,211.537 154.5,209C 141.303,205.806 130.803,198.639 123,187.5C 121.669,189.996 119.836,191.996 117.5,193.5 Z M 197.5,188.5 C 197.262,190.404 196.262,191.738 194.5,192.5C 194.738,190.596 195.738,189.262 197.5,188.5 Z M 147.5,187.5 C 152.346,189.295 157.346,190.629 162.5,191.5C 167.241,190.752 171.907,189.752 176.5,188.5C 169.953,193.415 162.62,194.581 154.5,192C 151.761,190.974 149.428,189.474 147.5,187.5 Z M 200.5,183.5 C 200.727,185.933 199.727,187.599 197.5,188.5C 197.273,186.067 198.273,184.401 200.5,183.5 Z M 183.5,182.5 C 183.167,184.833 181.833,186.167 179.5,186.5C 180.5,184.833 181.833,183.5 183.5,182.5 Z M 185.5,180.5 C 185.167,181.5 184.5,182.167 183.5,182.5C 183.5,181.167 184.167,180.5 185.5,180.5 Z M 204.5,170.5 C 203.297,171.943 202.797,173.609 203,175.5C 204.269,174.095 204.769,172.429 204.5,170.5 Z M 124.5,168.5 C 123.706,173.45 123.706,178.45 124.5,183.5C 121.979,181.97 120.979,179.636 121.5,176.5C 122.319,173.695 122.819,170.695 123,167.5C 124.107,166.288 124.607,166.621 124.5,168.5 Z M 200.5,146.5 C 202.472,149.084 203.472,152.084 203.5,155.5C 201.928,152.785 200.928,149.785 200.5,146.5 Z M 200.5,146.5 C 200.725,144.284 199.892,142.617 198,141.5C 197.751,143.668 198.584,145.335 200.5,146.5 Z M 194.5,137.5 C 194.604,139.973 195.604,140.639 197.5,139.5C 196.995,138.081 195.995,137.415 194.5,137.5 Z M 194.5,137.5 C 194.539,136.244 194.039,135.244 193,134.5C 191.35,136.042 191.85,137.042 194.5,137.5 Z M 186.5,199.5 C 176.878,207.135 165.878,209.635 153.5,207C 148.632,205.67 144.299,203.504 140.5,200.5C 155.975,207.378 171.308,207.045 186.5,199.5 Z M 189.5,197.5 C 189.027,198.906 188.027,199.573 186.5,199.5C 186.821,197.952 187.821,197.285 189.5,197.5 Z M 135.5,196.5 C 137.749,197.08 139.415,198.413 140.5,200.5C 138.251,199.92 136.585,198.587 135.5,196.5 Z M 191.5,195.5 C 191.167,196.5 190.5,197.167 189.5,197.5C 189.5,196.167 190.167,195.5 191.5,195.5 Z M 132.5,193.5 C 133.833,194.167 134.833,195.167 135.5,196.5C 133.5,196.5 132.5,195.5 132.5,193.5 Z M 194.5,192.5 C 194.19,194.144 193.19,195.144 191.5,195.5C 191.5,193.5 192.5,192.5 194.5,192.5 Z M 132.5,193.5 C 131.998,191.915 130.998,191.415 129.5,192C 130.244,193.039 131.244,193.539 132.5,193.5 Z"/></g>
<g><path style="opacity:0.416" fill="#aeaeae" d="M 71.5,31.5 C 64.0521,35.1782 56.7188,39.3448 49.5,44C 42.754,49.6677 37.5873,56.501 34,64.5C 25.9128,87.3033 30.0794,107.47 46.5,125C 43.0145,129.823 39.5145,134.656 36,139.5C 24.4423,166.767 29.9423,189.934 52.5,209C 77.8673,223.621 101.367,221.121 123,201.5C 144.632,220.852 168.132,223.352 193.5,209C 200.078,203.586 206.078,197.753 211.5,191.5C 204.213,204.954 193.213,213.787 178.5,218C 157.274,222.9 138.774,218.4 123,204.5C 103.158,221.127 81.3247,224.293 57.5,214C 40.8358,204.333 30.8358,189.999 27.5,171C 26.4292,153.549 31.7626,138.216 43.5,125C 26.9975,105.495 23.4975,84.3286 33,61.5C 41.0437,45.3903 53.877,35.3903 71.5,31.5 Z M 67.5,203.5 C 75.7681,205.591 84.1014,205.924 92.5,204.5C 94.7638,203.781 97.0971,203.448 99.5,203.5C 97.5073,205.163 95.1739,206.33 92.5,207C 85.0091,207.962 77.6758,207.462 70.5,205.5C 69.2905,205.068 68.2905,204.401 67.5,203.5 Z M 61.5,200.5 C 63.5,201.167 65.5,201.833 67.5,202.5C 67.5,202.833 67.5,203.167 67.5,203.5C 64.911,203.539 62.911,202.539 61.5,200.5 Z M 186.5,199.5 C 176.878,207.135 165.878,209.635 153.5,207C 148.632,205.67 144.299,203.504 140.5,200.5C 155.975,207.378 171.308,207.045 186.5,199.5 Z M 105.5,200.5 C 104.089,202.539 102.089,203.539 99.5,203.5C 101.181,201.992 103.181,200.992 105.5,200.5 Z M 189.5,197.5 C 189.027,198.906 188.027,199.573 186.5,199.5C 186.821,197.952 187.821,197.285 189.5,197.5 Z M 57.5,197.5 C 58.8333,197.5 59.5,198.167 59.5,199.5C 58.5,199.167 57.8333,198.5 57.5,197.5 Z M 135.5,196.5 C 137.749,197.08 139.415,198.413 140.5,200.5C 138.251,199.92 136.585,198.587 135.5,196.5 Z M 191.5,195.5 C 191.167,196.5 190.5,197.167 189.5,197.5C 189.5,196.167 190.167,195.5 191.5,195.5 Z M 132.5,193.5 C 133.833,194.167 134.833,195.167 135.5,196.5C 133.5,196.5 132.5,195.5 132.5,193.5 Z M 194.5,192.5 C 194.19,194.144 193.19,195.144 191.5,195.5C 191.5,193.5 192.5,192.5 194.5,192.5 Z M 51.5,192.5 C 52.8333,192.5 53.5,193.167 53.5,194.5C 52.5,194.167 51.8333,193.5 51.5,192.5 Z M 132.5,193.5 C 131.998,191.915 130.998,191.415 129.5,192C 130.244,193.039 131.244,193.539 132.5,193.5 Z"/></g>
<g><path style="opacity:0.26" fill="#8e8e8e" d="M 117.5,193.5 C 104.491,208.055 88.4912,212.722 69.5,207.5C 69.8333,206.833 70.1667,206.167 70.5,205.5C 77.6758,207.462 85.0091,207.962 92.5,207C 95.1739,206.33 97.5073,205.163 99.5,203.5C 97.0971,203.448 94.7638,203.781 92.5,204.5C 97.235,201.628 102.235,198.962 107.5,196.5C 109.736,195.611 111.736,194.278 113.5,192.5C 114.736,193.246 116.07,193.579 117.5,193.5 Z M 105.5,200.5 C 104.089,202.539 102.089,203.539 99.5,203.5C 101.181,201.992 103.181,200.992 105.5,200.5 Z"/></g>
</svg>
