<?xml version="1.0" encoding="UTF-8"?>
<!DOCTYPE svg PUBLIC "-//W3C//DTD SVG 1.1//EN" "http://www.w3.org/Graphics/SVG/1.1/DTD/svg11.dtd">
<svg xmlns="http://www.w3.org/2000/svg" version="1.1" width="251px" height="227px" style="shape-rendering:geometricPrecision; text-rendering:geometricPrecision; image-rendering:optimizeQuality; fill-rule:evenodd; clip-rule:evenodd" xmlns:xlink="http://www.w3.org/1999/xlink">
<g><path style="opacity:0.973" fill="#d5d6d6" d="M 111.5,25.5 C 110.737,26.2679 109.737,26.7679 108.5,27C 110.645,28.8175 110.645,30.3175 108.5,31.5C 108.709,32.086 109.043,32.586 109.5,33C 111.5,33.3333 113.5,33.6667 115.5,34C 114.167,34.3333 112.833,34.6667 111.5,35C 112.305,36.1127 112.972,37.2794 113.5,38.5C 109.412,35.1225 104.745,32.7891 99.5,31.5C 84.223,27.2873 69.8897,29.2873 56.5,37.5C 56.9528,36.5416 57.6195,35.7083 58.5,35C 63.4206,32.3714 68.4206,30.0381 73.5,28C 69.7269,26.6464 66.0602,25.1464 62.5,23.5C 51.3329,28.3333 42.6663,36 36.5,46.5C 35.8333,46.5 35.1667,46.5 34.5,46.5C 50.9501,20.7345 73.9501,12.2345 103.5,21C 106.359,22.2601 109.026,23.7601 111.5,25.5 Z"/></g>
<g><path style="opacity:0.943" fill="#dfdfdf" d="M 56.5,37.5 C 48.5869,45.0553 43.2536,54.0553 40.5,64.5C 40.9545,57.0459 43.6212,50.2125 48.5,44C 44.9494,45.9731 40.9494,46.8064 36.5,46.5C 42.6663,36 51.3329,28.3333 62.5,23.5C 66.0602,25.1464 69.7269,26.6464 73.5,28C 68.4206,30.0381 63.4206,32.3714 58.5,35C 57.6195,35.7083 56.9528,36.5416 56.5,37.5 Z"/></g>
<g><path style="opacity:0.942" fill="#d9d9d9" d="M 210.5,99.5 C 212.196,94.2713 213.696,88.9379 215,83.5C 216.164,76.2211 215.497,69.2211 213,62.5C 212.346,63.6956 211.846,63.6956 211.5,62.5C 212.325,61.6143 213.325,61.281 214.5,61.5C 214.5,60.5 214.5,59.5 214.5,58.5C 212.501,60.0277 209.835,60.6944 206.5,60.5C 203.513,50.8469 197.846,43.1802 189.5,37.5C 170.369,26.3124 151.702,26.9791 133.5,39.5C 135.004,37.1644 137.004,35.331 139.5,34C 143.838,32.1637 148.172,30.3304 152.5,28.5C 149.817,26.7357 146.984,25.069 144,23.5C 143.333,26.1667 142.667,26.1667 142,23.5C 140.333,24.1667 138.667,24.8333 137,25.5C 136.601,25.2716 136.435,24.9382 136.5,24.5C 162.051,12.3425 184.884,16.3425 205,36.5C 218.152,53.7661 221.152,72.7661 214,93.5C 213.059,95.7274 211.892,97.7274 210.5,99.5 Z"/></g>
<g><path style="opacity:0.942" fill="#e3e3e3" d="M 170.5,34.5 C 179.887,36.4478 187.72,41.1144 194,48.5C 197.132,53.8485 199.966,59.1818 202.5,64.5C 202.833,65.1667 203.167,65.8333 203.5,66.5C 202.288,67.2299 201.288,68.2299 200.5,69.5C 199.522,69.0233 198.689,68.3567 198,67.5C 196.701,67.9662 195.201,67.9662 193.5,67.5C 193.737,66.209 193.404,65.209 192.5,64.5C 188.115,53.4563 180.115,46.1229 168.5,42.5C 168.053,39.4761 167.22,39.1428 166,41.5C 165.505,39.5273 165.338,37.5273 165.5,35.5C 167.562,35.1282 169.229,34.7948 170.5,34.5 Z"/></g>
<g><path style="opacity:0.946" fill="#dedede" d="M 145.5,69.5 C 148.921,67.1872 151.921,67.5206 154.5,70.5C 155.59,69.6086 155.59,68.6086 154.5,67.5C 152.987,66.1537 151.653,64.6537 150.5,63C 151.032,60.9803 152.365,60.147 154.5,60.5C 154.047,61.4584 153.381,62.2917 152.5,63C 156.676,67.0091 160.676,71.1757 164.5,75.5C 165.832,79.3421 168.165,82.5088 171.5,85C 170.028,88.5518 171.362,90.2185 175.5,90C 174.167,90.3333 172.833,90.6667 171.5,91C 172.337,92.0113 172.67,93.1779 172.5,94.5C 174.703,94.3964 176.703,93.7298 178.5,92.5C 178.631,93.2389 178.464,93.9056 178,94.5C 167.224,105.114 156.391,115.448 145.5,125.5C 145.744,122.737 147.077,120.571 149.5,119C 148.407,117.635 147.074,117.301 145.5,118C 146.167,118.333 146.833,118.667 147.5,119C 142.556,119.816 138.223,121.649 134.5,124.5C 132.507,128.351 129.84,131.851 126.5,135C 125.251,135.74 124.251,135.573 123.5,134.5C 130.72,126.781 138.053,119.281 145.5,112C 142.94,109.597 140.273,107.43 137.5,105.5C 133.062,101.564 128.729,97.3978 124.5,93C 122.67,92.8184 121.003,93.3184 119.5,94.5C 119.712,92.6159 120.712,91.2826 122.5,90.5C 127.572,92.9583 131.572,96.625 134.5,101.5C 137.875,97.1905 140.542,97.5238 142.5,102.5C 143.176,101.398 143.842,100.398 144.5,99.5C 146.814,101.477 149.147,103.477 151.5,105.5C 152.981,104.52 154.315,103.353 155.5,102C 154.295,100.624 152.962,99.4577 151.5,98.5C 151.631,97.7611 151.464,97.0944 151,96.5C 142.969,89.3003 135.136,81.967 127.5,74.5C 119.5,68.5 112.5,61.5 106.5,53.5C 98.9232,44.5528 89.2565,40.8862 77.5,42.5C 78.9526,41.1751 78.6192,40.3418 76.5,40C 83.5032,39.5034 83.8365,38.8368 77.5,38C 79.1667,37.6667 80.8333,37.3333 82.5,37C 79.3248,37.0533 76.6581,36.22 74.5,34.5C 86.9456,31.6985 98.2789,34.1985 108.5,42C 126.333,59.8333 144.167,77.6667 162,95.5C 163.983,94.2343 164.983,92.5676 165,90.5C 157.905,83.9107 151.405,76.9107 145.5,69.5 Z"/></g>
<g><path style="opacity:0.946" fill="#e3e3e3" d="M 74.5,34.5 C 76.6581,36.22 79.3248,37.0533 82.5,37C 80.8333,37.3333 79.1667,37.6667 77.5,38C 83.8365,38.8368 83.5032,39.5034 76.5,40C 78.6192,40.3418 78.9526,41.1751 77.5,42.5C 66.7855,45.0494 59.2855,51.3827 55,61.5C 54.1993,64.367 54.3659,67.0336 55.5,69.5C 54.1667,71.5 54.1667,73.5 55.5,75.5C 54.3054,75.8656 53.6387,76.699 53.5,78C 54.2037,81.1275 54.7037,84.2942 55,87.5C 56.0113,88.3366 57.1779,88.67 58.5,88.5C 58.3832,90.4835 59.0499,92.1502 60.5,93.5C 58.2897,95.2088 58.123,97.2088 60,99.5C 61.0674,100.191 62.2341,100.691 63.5,101C 60.5624,101.712 57.8957,101.212 55.5,99.5C 41.8259,83.0093 40.9925,65.676 53,47.5C 58.8537,40.99 66.0204,36.6567 74.5,34.5 Z"/></g>
<g><path style="opacity:0.425" fill="#c0c0c0" d="M 202.5,64.5 C 199.966,59.1818 197.132,53.8485 194,48.5C 187.72,41.1144 179.887,36.4478 170.5,34.5C 160.7,32.2083 151.366,33.7083 142.5,39C 139.615,41.3943 136.615,43.5609 133.5,45.5C 128.183,43.4724 128.183,41.4724 133.5,39.5C 131.365,41.0605 131.198,42.7271 133,44.5C 152.868,27.1915 172.702,27.1915 192.5,44.5C 197.959,50.084 201.292,56.7506 202.5,64.5 Z"/></g>
<g><path style="opacity:0.678" fill="#c0c0c0" d="M 168.5,42.5 C 180.115,46.1229 188.115,53.4563 192.5,64.5C 192.5,65.5 192.5,66.5 192.5,67.5C 192.167,67.5 191.833,67.5 191.5,67.5C 185.702,49.2672 173.369,41.7672 154.5,45C 151.69,45.9064 149.024,47.0731 146.5,48.5C 146.5,47.5 146.5,46.5 146.5,45.5C 149.89,44.9767 153.223,44.1434 156.5,43C 160.486,42.5012 164.486,42.3345 168.5,42.5 Z"/></g>
<g><path style="opacity:0.947" fill="#e0e0e0" d="M 133.5,39.5 C 128.183,41.4724 128.183,43.4724 133.5,45.5C 136.615,43.5609 139.615,41.3943 142.5,39C 151.366,33.7083 160.7,32.2083 170.5,34.5C 169.229,34.7948 167.562,35.1282 165.5,35.5C 165.338,37.5273 165.505,39.5273 166,41.5C 167.22,39.1428 168.053,39.4761 168.5,42.5C 164.486,42.3345 160.486,42.5012 156.5,43C 153.223,44.1434 149.89,44.9767 146.5,45.5C 146.5,46.5 146.5,47.5 146.5,48.5C 140.305,49.6144 139.305,52.2811 143.5,56.5C 144.171,57.8471 144.171,59.0138 143.5,60C 146.167,61 146.167,62 143.5,63C 144.752,64.8278 144.752,66.6612 143.5,68.5C 133.457,58.4914 123.457,48.4914 113.5,38.5C 112.972,37.2794 112.305,36.1127 111.5,35C 112.833,34.6667 114.167,34.3333 115.5,34C 113.5,33.6667 111.5,33.3333 109.5,33C 109.043,32.586 108.709,32.086 108.5,31.5C 110.645,30.3175 110.645,28.8175 108.5,27C 109.737,26.7679 110.737,26.2679 111.5,25.5C 115.736,27.7226 119.736,30.3893 123.5,33.5C 127.369,29.7401 131.702,26.7401 136.5,24.5C 136.435,24.9382 136.601,25.2716 137,25.5C 138.667,24.8333 140.333,24.1667 142,23.5C 142.667,26.1667 143.333,26.1667 144,23.5C 146.984,25.069 149.817,26.7357 152.5,28.5C 148.172,30.3304 143.838,32.1637 139.5,34C 137.004,35.331 135.004,37.1644 133.5,39.5 Z"/></g>
<g><path style="opacity:0.944" fill="#dfdfdf" d="M 121.5,76.5 C 120.685,77.4293 119.852,78.4293 119,79.5C 118.922,81.6565 118.755,83.6565 118.5,85.5C 116.235,86.6999 114.402,88.3666 113,90.5C 112.617,89.944 112.117,89.6107 111.5,89.5C 113.348,87.4836 115.015,85.317 116.5,83C 115.924,81.2856 114.757,80.1189 113,79.5C 112.536,80.0944 112.369,80.7611 112.5,81.5C 102.167,92.5 91.5,103.167 80.5,113.5C 87.7406,104.755 95.5739,96.4214 104,88.5C 104.273,86.8988 104.773,85.3988 105.5,84C 104.256,83.5439 103.423,84.0439 103,85.5C 101.43,85.33 99.5972,84.9967 97.5,84.5C 96.8611,86.7604 95.6945,88.7604 94,90.5C 93.6667,90.1667 93.3333,89.8333 93,89.5C 88.6641,95.3334 83.8307,100.667 78.5,105.5C 76.9783,106.562 75.3117,107.229 73.5,107.5C 83.074,96.0913 93.574,85.4247 105,75.5C 105.374,74.5838 105.874,73.7504 106.5,73C 106.272,72.6012 105.938,72.4346 105.5,72.5C 104.033,69.1032 102.033,68.7699 99.5,71.5C 98.3784,70.8442 97.0451,70.5108 95.5,70.5C 92.8016,71.1914 90.135,71.8581 87.5,72.5C 90.3451,69.4879 93.0118,66.3212 95.5,63C 94.4826,60.1965 92.8159,59.0298 90.5,59.5C 90.1667,59.5 89.8333,59.5 89.5,59.5C 89.1193,58.0689 88.1193,57.2355 86.5,57C 83.2423,56.7883 80.0757,56.2883 77,55.5C 74.3716,58.8026 71.7049,62.1359 69,65.5C 67.6095,72.9567 68.7762,79.9567 72.5,86.5C 71.7528,86.7365 70.9195,87.0698 70,87.5C 69.6667,88.8333 69.3333,90.1667 69,91.5C 66.3431,90.009 64.1765,88.009 62.5,85.5C 56.3377,73.0536 58.671,61.8869 69.5,52C 79.3829,45.8875 89.0495,46.2208 98.5,53C 106.369,60.7017 114.036,68.5351 121.5,76.5 Z M 89.5,59.5 C 89.8333,59.5 90.1667,59.5 90.5,59.5C 92.8729,60.3781 93.7062,62.0448 93,64.5C 86.6547,70.5126 80.3214,76.5126 74,82.5C 67.9194,75.4311 68.0861,68.4311 74.5,61.5C 79.1572,58.4593 84.1572,57.7926 89.5,59.5 Z"/></g>
<g><path style="opacity:0.943" fill="#dedede" d="M 182.5,56.5 C 185.324,58.7996 187.157,61.7996 188,65.5C 190.247,76.6004 187.081,85.6004 178.5,92.5C 176.703,93.7298 174.703,94.3964 172.5,94.5C 172.67,93.1779 172.337,92.0113 171.5,91C 172.833,90.6667 174.167,90.3333 175.5,90C 171.362,90.2185 170.028,88.5518 171.5,85C 168.165,82.5088 165.832,79.3421 164.5,75.5C 166.963,77.4611 169.297,79.6278 171.5,82C 172.449,82.6172 173.282,82.4506 174,81.5C 179.491,71.3073 176.991,63.8073 166.5,59C 162.31,58.1903 158.31,58.6903 154.5,60.5C 152.365,60.147 151.032,60.9803 150.5,63C 151.653,64.6537 152.987,66.1537 154.5,67.5C 155.59,68.6086 155.59,69.6086 154.5,70.5C 151.921,67.5206 148.921,67.1872 145.5,69.5C 144.508,69.6716 143.842,69.3382 143.5,68.5C 144.752,66.6612 144.752,64.8278 143.5,63C 146.167,62 146.167,61 143.5,60C 144.171,59.0138 144.171,57.8471 143.5,56.5C 156.579,44.5192 169.579,44.5192 182.5,56.5 Z"/></g>
<g><path style="opacity:0.447" fill="#c0c0c0" d="M 189.5,37.5 C 197.846,43.1802 203.513,50.8469 206.5,60.5C 206.737,61.791 206.404,62.791 205.5,63.5C 202.718,53.27 197.384,44.6033 189.5,37.5 Z"/></g>
<g><path style="opacity:0.382" fill="#bdbdbd" d="M 182.5,56.5 C 169.579,44.5192 156.579,44.5192 143.5,56.5C 139.305,52.2811 140.305,49.6144 146.5,48.5C 144.882,49.4511 143.549,50.7844 142.5,52.5C 142.808,53.3081 143.308,53.9747 144,54.5C 153.718,45.7636 164.551,44.2636 176.5,50C 179.386,51.3845 181.386,53.5512 182.5,56.5 Z"/></g>
<g><path style="opacity:0.422" fill="#bcbcbc" d="M 151.5,98.5 C 152.962,99.4577 154.295,100.624 155.5,102C 154.315,103.353 152.981,104.52 151.5,105.5C 149.147,103.477 146.814,101.477 144.5,99.5C 137.167,91.5 129.5,83.8333 121.5,76.5C 114.036,68.5351 106.369,60.7017 98.5,53C 89.0495,46.2208 79.3829,45.8875 69.5,52C 58.671,61.8869 56.3377,73.0536 62.5,85.5C 62.5,86.1667 62.5,86.8333 62.5,87.5C 53.3987,70.9518 57.0653,57.7851 73.5,48C 84.3793,44.5861 94.046,46.5861 102.5,54C 118.5,70.3333 134.5,86.6667 150.5,103C 151.725,103.563 152.725,103.23 153.5,102C 152.177,101.184 151.511,100.017 151.5,98.5 Z M 89.5,59.5 C 89.8333,59.5 90.1667,59.5 90.5,59.5C 92.8729,60.3781 93.7062,62.0448 93,64.5C 86.6547,70.5126 80.3214,76.5126 74,82.5C 67.9194,75.4311 68.0861,68.4311 74.5,61.5C 79.1572,58.4593 84.1572,57.7926 89.5,59.5 Z"/></g>
<g><path style="opacity:0.184" fill="#bfbfbf" d="M 99.5,31.5 C 104.745,32.7891 109.412,35.1225 113.5,38.5C 123.457,48.4914 133.457,58.4914 143.5,68.5C 143.842,69.3382 144.508,69.6716 145.5,69.5C 151.405,76.9107 157.905,83.9107 165,90.5C 164.983,92.5676 163.983,94.2343 162,95.5C 144.167,77.6667 126.333,59.8333 108.5,42C 98.2789,34.1985 86.9456,31.6985 74.5,34.5C 66.0204,36.6567 58.8537,40.99 53,47.5C 40.9925,65.676 41.8259,83.0093 55.5,99.5C 57.8119,102.009 57.1453,104.009 53.5,105.5C 49.5497,103.229 47.2164,99.8957 46.5,95.5C 48.3606,98.0216 50.3606,100.522 52.5,103C 53.7248,103.563 54.7248,103.23 55.5,102C 41.2091,86.4121 39.0424,69.2454 49,50.5C 65.7324,29.6207 85.5658,26.1207 108.5,40C 126.333,57.8333 144.167,75.6667 162,93.5C 163.23,92.7248 163.563,91.7248 163,90.5C 146.14,73.6396 129.306,56.8063 112.5,40C 108.443,36.6452 104.11,33.8118 99.5,31.5 Z M 89.5,59.5 C 89.8333,59.5 90.1667,59.5 90.5,59.5C 92.8729,60.3781 93.7062,62.0448 93,64.5C 86.6547,70.5126 80.3214,76.5126 74,82.5C 67.9194,75.4311 68.0861,68.4311 74.5,61.5C 79.1572,58.4593 84.1572,57.7926 89.5,59.5 Z"/></g>
<g><path style="opacity:0.408" fill="#c6c6c6" d="M 77.5,42.5 C 89.2565,40.8862 98.9232,44.5528 106.5,53.5C 101.899,50.0895 96.8993,47.2562 91.5,45C 74.8449,41.7453 63.0116,47.9119 56,63.5C 55.5045,65.4727 55.3379,67.4727 55.5,69.5C 54.3659,67.0336 54.1993,64.367 55,61.5C 59.2855,51.3827 66.7855,45.0494 77.5,42.5 Z"/></g>
<g><path style="opacity:0.943" fill="#dddddd" d="M 192.5,64.5 C 193.404,65.209 193.737,66.209 193.5,67.5C 195.201,67.9662 196.701,67.9662 198,67.5C 198.689,68.3567 199.522,69.0233 200.5,69.5C 201.288,68.2299 202.288,67.2299 203.5,66.5C 204.264,78.3704 201.098,89.0371 194,98.5C 179.632,113.035 165.132,127.369 150.5,141.5C 153.233,138.098 155.566,134.431 157.5,130.5C 159.107,128.471 159.94,125.471 160,121.5C 165.045,118.239 169.545,114.406 173.5,110C 174.833,110 176.167,110 177.5,110C 179.308,105.885 181.474,102.051 184,98.5C 191.809,90.3544 194.642,80.0211 192.5,67.5C 192.5,66.5 192.5,65.5 192.5,64.5 Z"/></g>
<g><path style="opacity:0.931" fill="#e7e7e7" d="M 40.5,64.5 C 40.5,65.5 40.5,66.5 40.5,67.5C 39.5,67.5 38.5,67.5 37.5,67.5C 36.6951,78.3242 39.3617,88.1575 45.5,97C 44.5838,97.3742 43.7504,97.8742 43,98.5C 42.7508,97.376 42.2508,96.376 41.5,95.5C 39.9974,96.0522 38.3307,96.0522 36.5,95.5C 36.4568,91.1074 36.9568,90.7741 38,94.5C 38.5,93.5 39,92.5 39.5,91.5C 37.0758,90.6481 34.7424,89.6481 32.5,88.5C 28.0771,74.81 29.0771,61.4766 35.5,48.5C 35.3764,47.8933 35.0431,47.56 34.5,47.5C 34.5,47.1667 34.5,46.8333 34.5,46.5C 35.1667,46.5 35.8333,46.5 36.5,46.5C 40.9494,46.8064 44.9494,45.9731 48.5,44C 43.6212,50.2125 40.9545,57.0459 40.5,64.5 Z"/></g>
<g><path style="opacity:0.944" fill="#e3e3e3" d="M 121.5,76.5 C 129.5,83.8333 137.167,91.5 144.5,99.5C 143.842,100.398 143.176,101.398 142.5,102.5C 140.542,97.5238 137.875,97.1905 134.5,101.5C 131.572,96.625 127.572,92.9583 122.5,90.5C 120.712,91.2826 119.712,92.6159 119.5,94.5C 119.631,95.2389 119.464,95.9056 119,96.5C 115.275,100.065 111.442,103.398 107.5,106.5C 105.519,108.144 103.519,109.81 101.5,111.5C 100.119,111 99.4528,110 99.5,108.5C 100.021,104.48 102.188,101.813 106,100.5C 105.642,97.4529 107.142,95.2862 110.5,94C 109.584,93.7216 108.918,93.2216 108.5,92.5C 109.167,91.1667 110.167,90.1667 111.5,89.5C 112.117,89.6107 112.617,89.944 113,90.5C 114.402,88.3666 116.235,86.6999 118.5,85.5C 118.755,83.6565 118.922,81.6565 119,79.5C 119.852,78.4293 120.685,77.4293 121.5,76.5 Z"/></g>
<g><path style="opacity:0.659" fill="#b6b6b6" d="M 205.5,66.5 C 206.8,68.223 207.467,70.3897 207.5,73C 207.232,77.8995 206.566,82.7329 205.5,87.5C 204.256,90.9823 202.256,93.9823 199.5,96.5C 204.664,87.1721 206.664,77.1721 205.5,66.5 Z"/></g>
<g><path style="opacity:0.919" fill="#e6e6e6" d="M 210.5,99.5 C 208.606,100.048 206.94,101.048 205.5,102.5C 204.016,106.132 202.016,109.466 199.5,112.5C 202.876,115.559 205.543,119.225 207.5,123.5C 206.318,125.645 204.818,125.645 203,123.5C 202.302,124.691 201.469,125.691 200.5,126.5C 198.863,124.525 197.196,122.525 195.5,120.5C 196.162,118.53 196.828,116.53 197.5,114.5C 197.431,112.722 197.097,110.889 196.5,109C 198.303,107.129 199.636,104.962 200.5,102.5C 199.391,101.035 199.891,100.035 202,99.5C 203.307,96.5923 204.807,93.759 206.5,91C 206.011,89.8615 205.678,88.6948 205.5,87.5C 206.566,82.7329 207.232,77.8995 207.5,73C 207.467,70.3897 206.8,68.223 205.5,66.5C 205.5,65.5 205.5,64.5 205.5,63.5C 206.404,62.791 206.737,61.791 206.5,60.5C 209.835,60.6944 212.501,60.0277 214.5,58.5C 214.5,59.5 214.5,60.5 214.5,61.5C 213.325,61.281 212.325,61.6143 211.5,62.5C 211.846,63.6956 212.346,63.6956 213,62.5C 215.497,69.2211 216.164,76.2211 215,83.5C 213.696,88.9379 212.196,94.2713 210.5,99.5 Z"/></g>
<g><path style="opacity:0.765" fill="#c9c9c9" d="M 105.5,72.5 C 105.167,72.5 104.833,72.5 104.5,72.5C 103.211,71.4991 101.878,71.6658 100.5,73C 82.9649,90.3681 65.6316,107.868 48.5,125.5C 48.7086,124.078 49.2086,122.745 50,121.5C 58.5153,113.832 66.0153,105.499 72.5,96.5C 73.552,96.6495 74.552,96.4828 75.5,96C 83.4251,87.5834 91.4251,79.4167 99.5,71.5C 102.033,68.7699 104.033,69.1032 105.5,72.5 Z"/></g>
<g><path style="opacity:0.304" fill="#b0b0b0" d="M 127.5,74.5 C 135.136,81.967 142.969,89.3003 151,96.5C 151.464,97.0944 151.631,97.7611 151.5,98.5C 142.5,91.5 134.5,83.5 127.5,74.5 Z"/></g>
<g><path style="opacity:0.987" fill="#cdcdcd" d="M 108.5,92.5 C 108.918,93.2216 109.584,93.7216 110.5,94C 107.142,95.2862 105.642,97.4529 106,100.5C 102.188,101.813 100.021,104.48 99.5,108.5C 99.4528,110 100.119,111 101.5,111.5C 103.519,109.81 105.519,108.144 107.5,106.5C 106.797,108.716 105.464,110.549 103.5,112C 109.907,118.702 116.407,125.202 123,131.5C 130.167,125.667 136.667,119.167 142.5,112C 140.612,109.953 138.945,107.786 137.5,105.5C 140.273,107.43 142.94,109.597 145.5,112C 138.053,119.281 130.72,126.781 123.5,134.5C 116.19,128.141 109.19,121.308 102.5,114C 100.313,115.912 97.9799,117.246 95.5,118C 102.999,126.665 110.999,134.832 119.5,142.5C 120.41,144.655 121.577,146.655 123,148.5C 125.334,145 128.168,142 131.5,139.5C 128.883,143.13 126.216,146.797 123.5,150.5C 114.687,140.187 105.354,130.353 95.5,121C 94.2752,120.437 93.2752,120.77 92.5,122C 100.709,130.041 108.709,138.208 116.5,146.5C 123.048,156.547 122.881,166.547 116,176.5C 109.84,184.161 102.007,189.161 92.5,191.5C 92.4701,190.503 92.9701,189.836 94,189.5C 110.694,184.659 119.194,173.659 119.5,156.5C 119.011,153.533 117.845,150.867 116,148.5C 109.047,140.899 101.88,133.565 94.5,126.5C 93.5213,124.855 92.188,123.521 90.5,122.5C 91.6477,120.851 92.981,119.351 94.5,118C 93.4214,117.044 92.2547,116.211 91,115.5C 87.7415,117.688 84.2415,119.355 80.5,120.5C 89.5,110.833 98.8333,101.5 108.5,92.5 Z"/></g>
<g><path style="opacity:0.967" fill="#d9d9d9" d="M 89.5,59.5 C 84.1572,57.7926 79.1572,58.4593 74.5,61.5C 68.0861,68.4311 67.9194,75.4311 74,82.5C 80.3214,76.5126 86.6547,70.5126 93,64.5C 93.7062,62.0448 92.8729,60.3781 90.5,59.5C 92.8159,59.0298 94.4826,60.1965 95.5,63C 93.0118,66.3212 90.3451,69.4879 87.5,72.5C 85.3702,74.1271 83.3702,75.9604 81.5,78C 83.7965,81.6932 83.4632,84.8599 80.5,87.5C 77.0441,91.2874 72.7107,93.1208 67.5,93C 68.3676,97.9175 66.3676,101.251 61.5,103C 62.1667,103.333 62.8333,103.667 63.5,104C 59.0659,105.147 56.3993,107.98 55.5,112.5C 54.0963,114.922 52.2629,115.589 50,114.5C 48.3333,115.5 47,116.833 46,118.5C 45.6667,118.167 45.3333,117.833 45,117.5C 43.9455,120.056 42.1122,121.723 39.5,122.5C 41.1585,118.328 43.8252,114.828 47.5,112C 40.3443,105.517 35.3443,97.6836 32.5,88.5C 34.7424,89.6481 37.0758,90.6481 39.5,91.5C 39,92.5 38.5,93.5 38,94.5C 36.9568,90.7741 36.4568,91.1074 36.5,95.5C 38.3307,96.0522 39.9974,96.0522 41.5,95.5C 42.2508,96.376 42.7508,97.376 43,98.5C 43.7504,97.8742 44.5838,97.3742 45.5,97C 39.3617,88.1575 36.6951,78.3242 37.5,67.5C 38.5,67.5 39.5,67.5 40.5,67.5C 39.6621,77.4772 41.6621,86.8106 46.5,95.5C 47.2164,99.8957 49.5497,103.229 53.5,105.5C 57.1453,104.009 57.8119,102.009 55.5,99.5C 57.8957,101.212 60.5624,101.712 63.5,101C 62.2341,100.691 61.0674,100.191 60,99.5C 58.123,97.2088 58.2897,95.2088 60.5,93.5C 59.0499,92.1502 58.3832,90.4835 58.5,88.5C 57.1779,88.67 56.0113,88.3366 55,87.5C 54.7037,84.2942 54.2037,81.1275 53.5,78C 53.6387,76.699 54.3054,75.8656 55.5,75.5C 55.9056,82.6446 58.7389,88.6446 64,93.5C 64.6924,92.9747 65.1924,92.3081 65.5,91.5C 64.4756,90.1482 63.4756,88.8149 62.5,87.5C 62.5,86.8333 62.5,86.1667 62.5,85.5C 64.1765,88.009 66.3431,90.009 69,91.5C 69.3333,90.1667 69.6667,88.8333 70,87.5C 70.9195,87.0698 71.7528,86.7365 72.5,86.5C 68.7762,79.9567 67.6095,72.9567 69,65.5C 71.7049,62.1359 74.3716,58.8026 77,55.5C 80.0757,56.2883 83.2423,56.7883 86.5,57C 88.1193,57.2355 89.1193,58.0689 89.5,59.5 Z M 89.5,59.5 C 89.8333,59.5 90.1667,59.5 90.5,59.5C 92.8729,60.3781 93.7062,62.0448 93,64.5C 86.6547,70.5126 80.3214,76.5126 74,82.5C 67.9194,75.4311 68.0861,68.4311 74.5,61.5C 79.1572,58.4593 84.1572,57.7926 89.5,59.5 Z"/></g>
<g><path style="opacity:0.498" fill="#b4b4b4" d="M 104.5,72.5 C 104.833,72.5 105.167,72.5 105.5,72.5C 105.938,72.4346 106.272,72.6012 106.5,73C 105.874,73.7504 105.374,74.5838 105,75.5C 93.574,85.4247 83.074,96.0913 73.5,107.5C 66.276,114.221 59.1093,121.221 52,128.5C 48.5394,134.087 45.7061,139.754 43.5,145.5C 45.2254,136.262 49.3921,128.262 56,121.5C 72.6045,105.648 88.7712,89.3146 104.5,72.5 Z"/></g>
<g><path style="opacity:0.967" fill="#dcdcdc" d="M 205.5,87.5 C 205.678,88.6948 206.011,89.8615 206.5,91C 204.807,93.759 203.307,96.5923 202,99.5C 199.891,100.035 199.391,101.035 200.5,102.5C 199.636,104.962 198.303,107.129 196.5,109C 197.097,110.889 197.431,112.722 197.5,114.5C 196.828,116.53 196.162,118.53 195.5,120.5C 194.542,120.047 193.708,119.381 193,118.5C 190.735,119.916 189.569,121.916 189.5,124.5C 186.868,125.867 187.202,126.701 190.5,127C 189.033,128.098 188.199,129.598 188,131.5C 187.517,130.552 187.351,129.552 187.5,128.5C 186.448,128.351 185.448,128.517 184.5,129C 185.823,129.816 186.489,130.983 186.5,132.5C 185.143,131.315 183.643,130.315 182,129.5C 180.826,130.544 179.659,131.544 178.5,132.5C 176.974,133.105 175.974,134.271 175.5,136C 173.833,136.667 172.167,136.667 170.5,136C 171.888,135.111 171.722,134.611 170,134.5C 168.278,134.611 168.112,135.111 169.5,136C 167.5,136.333 165.5,136.667 163.5,137C 168.833,137.667 168.833,138.333 163.5,139C 163.833,139.333 164.167,139.667 164.5,140C 162.735,140.64 161.068,140.473 159.5,139.5C 172.519,125.981 185.686,112.648 199,99.5C 199.483,98.552 199.649,97.552 199.5,96.5C 202.256,93.9823 204.256,90.9823 205.5,87.5 Z"/></g>
<g><path style="opacity:0.867" fill="#b5b5b5" d="M 190.5,79.5 C 191.598,80.6009 191.765,81.9343 191,83.5C 189.587,86.6612 187.92,89.6612 186,92.5C 167.333,111.167 148.667,129.833 130,148.5C 126.899,153.695 125.732,159.362 126.5,165.5C 127.728,168.956 129.228,172.29 131,175.5C 134.67,178.734 138.17,182.067 141.5,185.5C 127.724,178.612 122.557,167.612 126,152.5C 131.655,145.18 137.655,138.18 144,131.5C 159.645,117.521 174.311,102.521 188,86.5C 189.136,84.257 189.97,81.9237 190.5,79.5 Z"/></g>
<g><path style="opacity:0.943" fill="#e4e4e4" d="M 99.5,71.5 C 91.4251,79.4167 83.4251,87.5834 75.5,96C 74.552,96.4828 73.552,96.6495 72.5,96.5C 66.0153,105.499 58.5153,113.832 50,121.5C 49.2086,122.745 48.7086,124.078 48.5,125.5C 44.3092,128.733 41.6425,133.066 40.5,138.5C 38.5,139.833 36.5,139.833 34.5,138.5C 35.2008,136.808 34.8675,135.142 33.5,133.5C 34.3773,129.184 36.3773,125.518 39.5,122.5C 42.1122,121.723 43.9455,120.056 45,117.5C 45.3333,117.833 45.6667,118.167 46,118.5C 47,116.833 48.3333,115.5 50,114.5C 52.2629,115.589 54.0963,114.922 55.5,112.5C 56.3993,107.98 59.0659,105.147 63.5,104C 62.8333,103.667 62.1667,103.333 61.5,103C 66.3676,101.251 68.3676,97.9175 67.5,93C 72.7107,93.1208 77.0441,91.2874 80.5,87.5C 83.4632,84.8599 83.7965,81.6932 81.5,78C 83.3702,75.9604 85.3702,74.1271 87.5,72.5C 90.135,71.8581 92.8016,71.1914 95.5,70.5C 97.0451,70.5108 98.3784,70.8442 99.5,71.5 Z"/></g>
<g><path style="opacity:0.488" fill="#b9b9b9" d="M 111.5,89.5 C 110.167,90.1667 109.167,91.1667 108.5,92.5C 98.8333,101.5 89.5,110.833 80.5,120.5C 74.8686,125.63 69.3686,130.964 64,136.5C 61.7822,140.936 59.6156,145.269 57.5,149.5C 57.9404,144.286 59.7737,139.619 63,135.5C 80,118.5 97,101.5 114,84.5C 114.585,83.0024 114.085,82.0024 112.5,81.5C 112.369,80.7611 112.536,80.0944 113,79.5C 114.757,80.1189 115.924,81.2856 116.5,83C 115.015,85.317 113.348,87.4836 111.5,89.5 Z"/></g>
<g><path style="opacity:0.944" fill="#e3e3e3" d="M 80.5,113.5 C 72.9225,119.572 65.7558,126.239 59,133.5C 56.0535,137.39 54.2202,141.723 53.5,146.5C 52.7321,145.737 52.2321,144.737 52,143.5C 51.647,145.074 50.9804,146.741 50,148.5C 48.1755,146.176 46.0088,145.843 43.5,147.5C 43.5,146.833 43.5,146.167 43.5,145.5C 45.7061,139.754 48.5394,134.087 52,128.5C 59.1093,121.221 66.276,114.221 73.5,107.5C 75.3117,107.229 76.9783,106.562 78.5,105.5C 83.8307,100.667 88.6641,95.3334 93,89.5C 93.3333,89.8333 93.6667,90.1667 94,90.5C 95.6945,88.7604 96.8611,86.7604 97.5,84.5C 99.5972,84.9967 101.43,85.33 103,85.5C 103.423,84.0439 104.256,83.5439 105.5,84C 104.773,85.3988 104.273,86.8988 104,88.5C 95.5739,96.4214 87.7406,104.755 80.5,113.5 Z"/></g>
<g><path style="opacity:0.942" fill="#e3e3e3" d="M 123.5,134.5 C 124.251,135.573 125.251,135.74 126.5,135C 129.84,131.851 132.507,128.351 134.5,124.5C 138.223,121.649 142.556,119.816 147.5,119C 146.833,118.667 146.167,118.333 145.5,118C 147.074,117.301 148.407,117.635 149.5,119C 147.077,120.571 145.744,122.737 145.5,125.5C 141.833,131.167 137.167,135.833 131.5,139.5C 128.168,142 125.334,145 123,148.5C 121.577,146.655 120.41,144.655 119.5,142.5C 110.999,134.832 102.999,126.665 95.5,118C 97.9799,117.246 100.313,115.912 102.5,114C 109.19,121.308 116.19,128.141 123.5,134.5 Z"/></g>
<g><path style="opacity:0.32" fill="#bfbfbf" d="M 34.5,47.5 C 35.0431,47.56 35.3764,47.8933 35.5,48.5C 29.0771,61.4766 28.0771,74.81 32.5,88.5C 35.3443,97.6836 40.3443,105.517 47.5,112C 43.8252,114.828 41.1585,118.328 39.5,122.5C 36.3773,125.518 34.3773,129.184 33.5,133.5C 28.3702,145.62 28.2035,157.953 33,170.5C 35.7593,174.596 38.0927,178.929 40,183.5C 43.0834,187.404 46.2501,191.071 49.5,194.5C 32.8323,181.702 25.999,164.702 29,143.5C 31.1171,131.433 36.2838,120.933 44.5,112C 27.158,92.6271 23.8247,71.1271 34.5,47.5 Z"/></g>
<g><path style="opacity:0.94" fill="#e0e0e0" d="M 178.5,132.5 C 179.262,134.262 180.596,135.262 182.5,135.5C 185.607,138.04 187.44,141.373 188,145.5C 190.368,157.586 186.535,167.086 176.5,174C 163.18,180.313 151.513,178.146 141.5,167.5C 139.945,165.057 139.278,162.39 139.5,159.5C 145.751,152.582 152.418,145.915 159.5,139.5C 161.068,140.473 162.735,140.64 164.5,140C 164.167,139.667 163.833,139.333 163.5,139C 168.833,138.333 168.833,137.667 163.5,137C 165.5,136.667 167.5,136.333 169.5,136C 168.112,135.111 168.278,134.611 170,134.5C 171.722,134.611 171.888,135.111 170.5,136C 172.167,136.667 173.833,136.667 175.5,136C 175.974,134.271 176.974,133.105 178.5,132.5 Z M 173.5,141.5 C 179.327,150.864 177.66,158.698 168.5,165C 162.3,166.635 156.967,165.301 152.5,161C 158.703,154.965 164.703,148.798 170.5,142.5C 171.209,141.596 172.209,141.263 173.5,141.5 Z"/></g>
<g><path style="opacity:0.939" fill="#e3e3e3" d="M 94.5,126.5 C 101.88,133.565 109.047,140.899 116,148.5C 117.845,150.867 119.011,153.533 119.5,156.5C 116.692,156.693 114.025,157.36 111.5,158.5C 111.274,161.249 111.607,163.916 112.5,166.5C 111.675,167.386 110.675,167.719 109.5,167.5C 111.284,161.779 110.451,156.445 107,151.5C 100.592,143.955 93.7589,136.955 86.5,130.5C 86.7058,128.451 87.5391,128.117 89,129.5C 90.8665,128.473 92.6998,127.473 94.5,126.5 Z"/></g>
<g><path style="opacity:0.276" fill="#c1c1c1" d="M 199.5,96.5 C 199.649,97.552 199.483,98.552 199,99.5C 185.686,112.648 172.519,125.981 159.5,139.5C 152.418,145.915 145.751,152.582 139.5,159.5C 139.709,158.078 140.209,156.745 141,155.5C 160.729,135.938 180.229,116.272 199.5,96.5 Z"/></g>
<g><path style="opacity:0.438" fill="#c4c4c4" d="M 80.5,113.5 C 74.2027,120.298 67.7027,126.965 61,133.5C 57.5321,138.425 55.3654,143.759 54.5,149.5C 53.8902,148.609 53.5569,147.609 53.5,146.5C 54.2202,141.723 56.0535,137.39 59,133.5C 65.7558,126.239 72.9225,119.572 80.5,113.5 Z"/></g>
<g><path style="opacity:0.943" fill="#e0e0e0" d="M 94.5,126.5 C 92.6998,127.473 90.8665,128.473 89,129.5C 87.5391,128.117 86.7058,128.451 86.5,130.5C 85.3478,129.375 84.3478,129.375 83.5,130.5C 83.1667,131.167 82.8333,131.833 82.5,132.5C 81.7611,132.369 81.0944,132.536 80.5,133C 88,140.5 95.5,148 103,155.5C 104.368,158.738 104.701,162.072 104,165.5C 100.121,169.158 95.9545,172.325 91.5,175C 85.5533,176.675 79.5533,176.842 73.5,175.5C 62.1023,170.727 56.769,162.06 57.5,149.5C 59.6156,145.269 61.7822,140.936 64,136.5C 69.3686,130.964 74.8686,125.63 80.5,120.5C 84.2415,119.355 87.7415,117.688 91,115.5C 92.2547,116.211 93.4214,117.044 94.5,118C 92.981,119.351 91.6477,120.851 90.5,122.5C 92.188,123.521 93.5213,124.855 94.5,126.5 Z M 79.5,145.5 C 83.4603,150.628 87.9603,155.295 93,159.5C 93.6838,160.784 93.5171,161.951 92.5,163C 82.7698,167.997 75.2698,165.83 70,156.5C 68.5945,150.465 69.9279,145.132 74,140.5C 75.4117,142.686 77.245,144.352 79.5,145.5 Z"/></g>
<g><path style="opacity:0.972" fill="#dbdbdb" d="M 191.5,67.5 C 191.833,67.5 192.167,67.5 192.5,67.5C 194.642,80.0211 191.809,90.3544 184,98.5C 181.474,102.051 179.308,105.885 177.5,110C 176.167,110 174.833,110 173.5,110C 169.545,114.406 165.045,118.239 160,121.5C 159.94,125.471 159.107,128.471 157.5,130.5C 156.763,128.618 155.596,127.952 154,128.5C 153.751,129.624 153.251,130.624 152.5,131.5C 151.549,130.674 150.549,130.508 149.5,131C 149.833,131.333 150.167,131.667 150.5,132C 148.32,134.012 145.986,135.845 143.5,137.5C 142.359,138.425 142.359,139.259 143.5,140C 137.985,144.573 134.652,150.073 133.5,156.5C 130.978,156.128 128.978,156.961 127.5,159C 127.833,159.333 128.167,159.667 128.5,160C 127.891,161.948 127.224,163.782 126.5,165.5C 125.732,159.362 126.899,153.695 130,148.5C 148.667,129.833 167.333,111.167 186,92.5C 187.92,89.6612 189.587,86.6612 191,83.5C 191.765,81.9343 191.598,80.6009 190.5,79.5C 191.43,75.6002 191.763,71.6002 191.5,67.5 Z"/></g>
<g><path style="opacity:0.923" fill="#e1e1e1" d="M 210.5,99.5 C 208.106,104.067 205.106,108.234 201.5,112C 215.1,126.14 220.267,142.974 217,162.5C 214.218,177.091 206.718,188.425 194.5,196.5C 189.387,199.055 184.053,201.055 178.5,202.5C 170.853,201.768 163.187,201.268 155.5,201C 158.167,200.667 160.833,200.333 163.5,200C 162.207,199.51 160.873,199.343 159.5,199.5C 159.5,198.5 159.5,197.5 159.5,196.5C 182.999,196.675 198.499,185.675 206,163.5C 209.134,150.355 207.301,138.022 200.5,126.5C 201.469,125.691 202.302,124.691 203,123.5C 204.818,125.645 206.318,125.645 207.5,123.5C 205.543,119.225 202.876,115.559 199.5,112.5C 202.016,109.466 204.016,106.132 205.5,102.5C 206.94,101.048 208.606,100.048 210.5,99.5 Z"/></g>
<g><path style="opacity:0.94" fill="#e4e4e4" d="M 189.5,124.5 C 194.676,128.55 198.176,133.884 200,140.5C 204.426,158.057 199.592,172.391 185.5,183.5C 184.522,183.189 183.855,182.522 183.5,181.5C 184.665,180.416 185.998,179.583 187.5,179C 186.207,178.51 184.873,178.343 183.5,178.5C 183.5,177.167 183.5,175.833 183.5,174.5C 187.36,170.121 190.694,165.287 193.5,160C 193.66,153.885 192.993,147.719 191.5,141.5C 190.089,138.344 188.422,135.344 186.5,132.5C 186.489,130.983 185.823,129.816 184.5,129C 185.448,128.517 186.448,128.351 187.5,128.5C 187.351,129.552 187.517,130.552 188,131.5C 188.199,129.598 189.033,128.098 190.5,127C 187.202,126.701 186.868,125.867 189.5,124.5 Z"/></g>
<g><path style="opacity:0.944" fill="#dfdfdf" d="M 157.5,130.5 C 155.566,134.431 153.233,138.098 150.5,141.5C 145.459,146.374 140.959,151.708 137,157.5C 136.242,161.357 136.742,165.023 138.5,168.5C 138.351,169.552 138.517,170.552 139,171.5C 152.98,184.851 167.814,185.851 183.5,174.5C 183.5,175.833 183.5,177.167 183.5,178.5C 184.873,178.343 186.207,178.51 187.5,179C 185.998,179.583 184.665,180.416 183.5,181.5C 183.855,182.522 184.522,183.189 185.5,183.5C 185.5,183.833 185.5,184.167 185.5,184.5C 183.747,186.223 181.747,187.723 179.5,189C 169.823,192.904 159.99,193.404 150,190.5C 146.707,189.444 143.874,187.777 141.5,185.5C 138.17,182.067 134.67,178.734 131,175.5C 129.228,172.29 127.728,168.956 126.5,165.5C 127.224,163.782 127.891,161.948 128.5,160C 128.167,159.667 127.833,159.333 127.5,159C 128.978,156.961 130.978,156.128 133.5,156.5C 134.652,150.073 137.985,144.573 143.5,140C 142.359,139.259 142.359,138.425 143.5,137.5C 145.986,135.845 148.32,134.012 150.5,132C 150.167,131.667 149.833,131.333 149.5,131C 150.549,130.508 151.549,130.674 152.5,131.5C 153.251,130.624 153.751,129.624 154,128.5C 155.596,127.952 156.763,128.618 157.5,130.5 Z"/></g>
<g><path style="opacity:0.943" fill="#e3e3e3" d="M 53.5,146.5 C 53.5569,147.609 53.8902,148.609 54.5,149.5C 54.3253,151.621 54.6586,153.621 55.5,155.5C 54.5028,155.47 53.8361,155.97 53.5,157C 57.1233,171.918 66.9566,180.418 83,182.5C 94.3846,181.732 103.218,176.732 109.5,167.5C 110.675,167.719 111.675,167.386 112.5,166.5C 111.607,163.916 111.274,161.249 111.5,158.5C 114.025,157.36 116.692,156.693 119.5,156.5C 119.194,173.659 110.694,184.659 94,189.5C 92.9701,189.836 92.4701,190.503 92.5,191.5C 91.5,191.5 90.5,191.5 89.5,191.5C 74.4716,192.317 61.9716,186.984 52,175.5C 48.8899,171.111 46.7233,166.278 45.5,161C 45.1639,159.97 44.4972,159.47 43.5,159.5C 42.5499,155.458 42.5499,151.458 43.5,147.5C 46.0088,145.843 48.1755,146.176 50,148.5C 50.9804,146.741 51.647,145.074 52,143.5C 52.2321,144.737 52.7321,145.737 53.5,146.5 Z"/></g>
<g><path style="opacity:0.943" fill="#dfdfdf" d="M 48.5,125.5 C 38.6612,141.762 37.9946,158.428 46.5,175.5C 53.3777,187.959 64.0443,194.959 78.5,196.5C 78.4208,197.93 78.7542,199.264 79.5,200.5C 79.1924,201.308 78.6924,201.975 78,202.5C 76.1329,202.165 73.9663,201.665 71.5,201C 73.9316,199.913 73.5983,199.413 70.5,199.5C 70.6567,200.873 70.49,202.207 70,203.5C 65.3015,201.612 60.4682,199.945 55.5,198.5C 53.1475,197.66 51.1475,196.326 49.5,194.5C 46.2501,191.071 43.0834,187.404 40,183.5C 38.0927,178.929 35.7593,174.596 33,170.5C 28.2035,157.953 28.3702,145.62 33.5,133.5C 34.8675,135.142 35.2008,136.808 34.5,138.5C 36.5,139.833 38.5,139.833 40.5,138.5C 41.6425,133.066 44.3092,128.733 48.5,125.5 Z"/></g>
<g><path style="opacity:0.455" fill="#c3c3c3" d="M 173.5,141.5 C 175.074,141.937 176.241,142.937 177,144.5C 180.436,154.874 177.269,162.374 167.5,167C 160.675,168.581 155.009,166.747 150.5,161.5C 155.829,155.172 161.495,149.172 167.5,143.5C 168.417,142.873 169.417,142.539 170.5,142.5C 164.703,148.798 158.703,154.965 152.5,161C 156.967,165.301 162.3,166.635 168.5,165C 177.66,158.698 179.327,150.864 173.5,141.5 Z"/></g>
<g><path style="opacity:0.78" fill="#c3c3c3" d="M 82.5,132.5 C 89.4641,139.965 96.6308,147.298 104,154.5C 107.915,160.761 107.082,166.261 101.5,171C 92.8951,177.642 83.5617,179.142 73.5,175.5C 79.5533,176.842 85.5533,176.675 91.5,175C 95.9545,172.325 100.121,169.158 104,165.5C 104.701,162.072 104.368,158.738 103,155.5C 95.5,148 88,140.5 80.5,133C 81.0944,132.536 81.7611,132.369 82.5,132.5 Z"/></g>
<g><path style="opacity:0.186" fill="#c3c3c3" d="M 79.5,145.5 C 84.7503,149.909 89.917,154.576 95,159.5C 95.6667,160.5 95.6667,161.5 95,162.5C 86.0948,169.597 77.7615,168.93 70,160.5C 65.5076,152.243 66.8409,145.243 74,139.5C 76.7291,140.676 78.5624,142.676 79.5,145.5 Z M 79.5,145.5 C 77.245,144.352 75.4117,142.686 74,140.5C 69.9279,145.132 68.5945,150.465 70,156.5C 75.2698,165.83 82.7698,167.997 92.5,163C 93.5171,161.951 93.6838,160.784 93,159.5C 87.9603,155.295 83.4603,150.628 79.5,145.5 Z"/></g>
<g><path style="opacity:0.325" fill="#c2c2c2" d="M 186.5,132.5 C 188.422,135.344 190.089,138.344 191.5,141.5C 192.993,147.719 193.66,153.885 193.5,160C 190.694,165.287 187.36,170.121 183.5,174.5C 167.814,185.851 152.98,184.851 139,171.5C 138.517,170.552 138.351,169.552 138.5,168.5C 149.829,181.393 163.162,183.893 178.5,176C 190.71,166.367 194.21,154.2 189,139.5C 187.533,136.734 185.7,134.234 183.5,132C 182.275,131.437 181.275,131.77 180.5,133C 181.381,133.708 182.047,134.542 182.5,135.5C 180.596,135.262 179.262,134.262 178.5,132.5C 179.659,131.544 180.826,130.544 182,129.5C 183.643,130.315 185.143,131.315 186.5,132.5 Z"/></g>
<g><path style="opacity:0.43" fill="#bebebe" d="M 83.5,130.5 C 84.3478,129.375 85.3478,129.375 86.5,130.5C 93.7589,136.955 100.592,143.955 107,151.5C 110.451,156.445 111.284,161.779 109.5,167.5C 103.218,176.732 94.3846,181.732 83,182.5C 66.9566,180.418 57.1233,171.918 53.5,157C 53.8361,155.97 54.5028,155.47 55.5,155.5C 59.3562,173.837 70.6895,182.004 89.5,180C 97.6834,178.135 103.85,173.635 108,166.5C 108.937,161.597 108.27,156.93 106,152.5C 98.6316,144.964 91.1316,137.631 83.5,130.5 Z"/></g>
<g><path style="opacity:0.945" fill="#dddddd" d="M 124.5,173.5 C 124.762,176.691 126.095,179.358 128.5,181.5C 136.863,190.52 147.196,195.52 159.5,196.5C 159.5,197.5 159.5,198.5 159.5,199.5C 160.873,199.343 162.207,199.51 163.5,200C 160.833,200.333 158.167,200.667 155.5,201C 163.187,201.268 170.853,201.768 178.5,202.5C 184.053,201.055 189.387,199.055 194.5,196.5C 182.236,205.057 168.569,208.224 153.5,206C 141.956,203.728 131.956,198.562 123.5,190.5C 104.926,206.98 83.9257,210.813 60.5,202C 58.4156,201.303 56.7489,200.136 55.5,198.5C 60.4682,199.945 65.3015,201.612 70,203.5C 70.49,202.207 70.6567,200.873 70.5,199.5C 73.5983,199.413 73.9316,199.913 71.5,201C 73.9663,201.665 76.1329,202.165 78,202.5C 78.6924,201.975 79.1924,201.308 79.5,200.5C 78.7542,199.264 78.4208,197.93 78.5,196.5C 97.5112,197.745 112.011,190.412 122,174.5C 122.671,173.748 123.504,173.414 124.5,173.5 Z"/></g>
<g><path style="opacity:0.405" fill="#c4c4c4" d="M 43.5,159.5 C 44.4972,159.47 45.1639,159.97 45.5,161C 46.7233,166.278 48.8899,171.111 52,175.5C 61.9716,186.984 74.4716,192.317 89.5,191.5C 70.7898,193.971 56.6231,186.971 47,170.5C 45.3677,166.968 44.2011,163.301 43.5,159.5 Z"/></g>
<g><path style="opacity:0.542" fill="#c0c0c0" d="M 124.5,173.5 C 123.504,173.414 122.671,173.748 122,174.5C 112.011,190.412 97.5112,197.745 78.5,196.5C 64.0443,194.959 53.3777,187.959 46.5,175.5C 61.9667,195.361 81.3,200.194 104.5,190C 112.022,185.145 118.189,178.978 123,171.5C 124.03,171.836 124.53,172.503 124.5,173.5 Z"/></g>
<g><path style="opacity:0.37" fill="#c1c1c1" d="M 195.5,120.5 C 197.196,122.525 198.863,124.525 200.5,126.5C 207.301,138.022 209.134,150.355 206,163.5C 198.499,185.675 182.999,196.675 159.5,196.5C 147.196,195.52 136.863,190.52 128.5,181.5C 126.095,179.358 124.762,176.691 124.5,173.5C 136.298,190.722 152.632,197.555 173.5,194C 197.918,185.017 208.418,167.517 205,141.5C 202.798,133.424 198.798,126.424 193,120.5C 192.308,121.025 191.808,121.692 191.5,122.5C 206.01,139.627 207.176,157.627 195,176.5C 192.234,179.777 189.067,182.443 185.5,184.5C 185.5,184.167 185.5,183.833 185.5,183.5C 199.592,172.391 204.426,158.057 200,140.5C 198.176,133.884 194.676,128.55 189.5,124.5C 189.569,121.916 190.735,119.916 193,118.5C 193.708,119.381 194.542,120.047 195.5,120.5 Z"/></g>
</svg>
